<?xml version="1.0" encoding="utf-8"?>
<!-- Generator: Adobe Illustrator 19.0.0, SVG Export Plug-In . SVG Version: 6.00 Build 0)  -->
<svg version="1.1" xmlns="http://www.w3.org/2000/svg" xmlns:xlink="http://www.w3.org/1999/xlink" x="0px" y="0px"
	 viewBox="0 0 435.3 177.3" style="enable-background:new 0 0 435.3 177.3;" xml:space="preserve">
<style type="text/css">
	.st0{fill:#CCCCCC;}
	.st1{fill:#FFFFFF;}
	.st2{fill:#C4252B;}
</style>
<g id="BACKGROUND">
</g>
<g id="OBJECTS">
	<g>
		<path class="st0" d="M309.5,59.3c0,0,0.1,0,0.1,0c0.2,0,0.3-0.1,0.5-0.2c0.1-0.1,0.2-0.2,0.4-0.2c0-0.2,0.1-0.4,0.1-0.6
			c-0.1,0.1-0.3,0.2-0.5,0.3C309.8,58.8,309.5,59,309.5,59.3C309.4,59.3,309.5,59.3,309.5,59.3z"/>
		<path class="st0" d="M261.9,77.8C261.9,77.8,262,77.7,261.9,77.8C262,77.7,262,77.7,261.9,77.8c-0.1-0.1-0.1-0.1-0.2-0.1
			C261.8,77.7,261.9,77.8,261.9,77.8z"/>
		<path class="st0" d="M267.8,75.3c0,0.1-0.1,0.1-0.1,0.2c0,0,0,0,0.1-0.1C267.8,75.4,267.8,75.4,267.8,75.3L267.8,75.3z"/>
		<path class="st0" d="M140.5,84.5C140.4,84.4,140.4,84.4,140.5,84.5c-0.1-0.1-0.1-0.1-0.1-0.1c0,0,0,0,0,0
			C140.4,84.4,140.4,84.5,140.5,84.5z"/>
		<path class="st0" d="M310.8,57.8c0,0-0.1,0-0.1,0.1c0,0,0,0.1,0,0.1C310.7,57.9,310.8,57.8,310.8,57.8z"/>
		<path class="st0" d="M355.3,99c0,0,0,0.1,0,0.1C355.2,99.1,355.3,99,355.3,99C355.3,99,355.3,99,355.3,99z"/>
		<path class="st0" d="M110,125.7c0,0-0.1-0.1-0.1-0.1C110,125.7,110,125.7,110,125.7C110,125.8,110,125.8,110,125.7z"/>
		<path class="st0" d="M200.5,104.2L200.5,104.2c0,0,0,0.1,0.1,0.2c0,0,0,0,0,0l0.1-0.1c0,0,0,0,0,0
			C200.7,104.3,200.6,104.3,200.5,104.2L200.5,104.2C200.5,104.2,200.5,104.2,200.5,104.2z"/>
		<path class="st0" d="M2.4,13.5c0.5-0.4,0.3-0.8,0.2-1.1c-0.1-0.2-0.2-0.4-0.2-0.6c-0.2,0-0.3,0-0.5,0c-0.2,0-0.3,0-0.5,0
			c-0.2,0-0.4,0-0.5-0.1c-0.1,0-0.3,0-0.4,0c-0.2,0-0.3,0-0.4,0.1c0,0,0,0.1-0.1,0.1c0,0,0,0,0,0C0,12.1,0,12.2,0,12.4
			c0,0.1,0,0.2,0,0.3c0.4,0.5,0.9,1,1.6,1C1.9,13.7,2.1,13.6,2.4,13.5z"/>
		<path class="st0" d="M435.3,102.8l0-9.7c-0.1,0-0.1-0.1-0.2-0.1c-0.1,0-0.1,0-0.1,0c-0.3-0.1-0.6-0.1-0.8-0.2
			c-0.4,0-0.9-0.1-1.2-0.5l-0.5-0.7c-0.4-0.9-1-1-1.6-1c-0.2,0-0.5,0-0.8,0c-0.1,0-0.3-0.1-0.5-0.1c-0.1,0-0.2,0-0.4,0
			c-0.1,0-0.2,0-0.4,0c-0.3,0-0.6,0-0.9-0.3c-0.3-0.5-0.7-0.8-1.2-0.8c-0.5,0-0.9,0.2-1.4,0.4l-1.3,0l-1.2-0.4
			c-1.1-0.9-2.5-1.3-3.8-1.7c-0.8-0.3-1.6-0.5-2.4-0.9c-0.8-0.3-1.6-0.8-2.3-1.3c-1.2-0.8-2.4-1.6-4-1.8c-1.7-0.1-2.8-0.5-3.3-1.1
			c-0.6-0.6-1.1-0.9-1.8-0.9c-0.5,0-0.9,0.1-1.4,0.3l-0.3,0.1c-0.5,0.1-1,0.4-1.5,0.7c-0.2,0.1-0.4,0.2-0.7,0.4
			c-0.2,0.1-0.5,0.2-0.7,0.3c-0.6,0.3-1.1,0.5-1.7,0.7c-0.1,0-0.2,0.1-0.3,0.1c-0.4,0.1-0.8,0.2-0.9,0.7c0,0,0,0,0,0
			c0,0.1,0,0.2,0,0.3l0,0.9c-0.1,0.2,0.1,0.4,0.2,0.6c0.1,0.2,0.3,0.3,0.2,0.5c0,0.1-0.2,0.2-0.6,0.3c0,0.1,0,0.1,0,0.2l-0.4,0.2
			l-0.2,0.1c-0.1,0-0.2-0.1-0.4-0.1c-0.3,0-0.5,0.1-0.7,0.2c-0.1,0.1-0.3,0.2-0.5,0.2c-0.1,0-0.2,0-0.2,0c-0.1,0-0.2,0-0.2,0
			c-0.2,0-0.5,0-0.6,0.3c-0.1,0-0.1,0-0.2,0.1c-0.1,0.1-0.3,0.1-0.4,0.1c0,0,0,0,0,0c-0.3,0-0.6,0-0.9,0c-1.1,0-2.3,0.3-2.5,2.3
			c0,0.1,0,0.2-0.1,0.3c0,0,0,0,0,0c-0.2,0.6-1,1.1-1.3,1.2c-1.5,0.3-2.4,1.2-2.5,2.6c0,0.2-0.1,0.4-0.3,0.5
			c-0.1,0.1-0.1,0.2-0.2,0.3c-0.1,0.1-0.2,0.2-0.3,0.3c-0.4,0.3-0.7,0.7-0.8,1.2c-0.1,0.1-0.3,0.1-0.4,0.2c-0.3,0.1-0.7,0.2-0.9,0.6
			l-0.7,1l-0.3,0.1c-0.8,0.2-1.6,0.3-2.4,0.3c-1.3,0-2.2-0.4-3-1.4l-0.2-0.6c0-0.1,0-0.1-0.1-0.1c0.1-0.1,0.1-0.2,0-0.3
			c0-0.2,0.2-0.4,0.3-0.6c0.3-0.4,0.6-0.9,0-1.4c-0.2-0.2-0.3-0.2-0.5-0.2c-0.2,0-0.4,0.2-0.6,0.3c-0.1,0.1-0.1,0.1-0.2,0.2
			c0,0,0,0,0,0l-0.3-1c0-0.3,0-0.6,0-0.9c0.1-0.8,0.1-1.7-1-2.2c0-0.1,0-0.2-0.1-0.3c-0.2,0-0.4-0.1-0.5-0.1c-0.1,0-0.1,0-0.2,0
			c0,0-0.1,0-0.1,0c-0.1,0-0.2,0.1-0.3,0.2c0,0-0.1,0-0.1,0.1c-0.3,0.3-0.4,0.7-0.5,1.1l-0.7-0.9l-0.6-0.8c0-0.2,0.1-0.3,0.1-0.4
			c-0.8-1.1-0.8-2.4-0.8-3.6c0-0.3,0-0.5,0-0.8c-0.2-0.9,0.1-1.6,0.4-2.4c0.2-0.4,0.3-0.9,0.4-1.3l0-1.2c0.1-1-0.3-1.7-1.2-2.4
			l-0.5-0.6c0-0.1-0.1-0.2-0.1-0.3c-0.1-0.3-0.3-0.5-0.1-0.8c0.3-0.5,0.4-0.9,0.3-1.2c-0.1-0.4-0.6-0.7-1.1-0.9
			c-0.1-0.1-0.3-0.2-0.4-0.2c-0.4-0.2-0.8-0.3-1.4-0.3c-0.3,0-0.6,0-0.9,0.1c-0.3,0-0.6,0.1-0.9,0.1c-0.3,0-0.6,0-0.9-0.1
			c-0.4-0.3-0.7-0.4-1-0.4c-0.1,0-0.2,0-0.3,0.1c0-0.1,0-0.1-0.1-0.2c-0.5,0-0.7-0.3-1-0.6c-0.2-0.2-0.4-0.4-0.6-0.5l-0.1,0l-0.1,0
			c0-0.1-0.1-0.1-0.1-0.2c-0.2-0.1-0.4-0.2-0.7-0.2c0,0,0,0,0,0c-0.1,0-0.2,0-0.3,0.1c-0.9-0.6-2-1.1-3.3-1.4l-0.4-0.1
			c-0.3,0-0.7-0.1-1-0.1c-0.3,0-0.6,0-0.9,0.1l-2,0l-1.1,0.6l-0.9,0.4l-0.3,0.4c0,0-0.1,0-0.2,0c-0.5,0.1-0.8,0.3-1,0.8
			c-0.2,0.3-0.5,0.4-0.9,0.4c0,0,0,0,0,0c-0.1,0-0.1,0-0.2,0.1c0,0,0,0,0,0c0,0,0,0,0,0c-0.3-0.1-0.5-0.1-0.7-0.1
			c-0.4,0-0.7,0.1-0.9,0.4c-0.1,0.1-0.1,0.2-0.2,0.3c0,0,0,0,0,0c0-0.1-0.1-0.2-0.1-0.3c-0.2-0.1-0.4-0.1-0.6-0.1
			c-0.5,0-0.9,0.1-1.4,0.3l-0.4,0.1c-0.9,0.7-1.3,1.6-1.4,2.5c0,0.2,0,0.4,0,0.6c-0.1-0.2-0.2-0.4-0.2-0.5c-0.1-0.4-0.3-0.9-0.9-1
			c-0.1,0-0.1,0-0.2,0c-0.1,0-0.3,0-0.4-0.1c-0.2-0.2-0.1-0.5-0.1-0.9c0-0.1,0-0.3,0-0.4l-0.3-0.1c-0.2-0.1-0.3-0.2-0.4-0.2
			c-0.2,0-0.3,0.1-0.4,0.3c0,0-0.1,0-0.1,0c-0.5,0.1-1,0.2-1.6,0.4c-0.2,0.1-0.3,0.2-0.5,0.3l-0.6,0l-0.6,0l-0.2,0.2
			c-0.1,0-0.2,0-0.2,0c-0.2,0.1-0.3,0.2-0.3,0.4c0,0-0.1,0.1-0.1,0.1c0,0,0,0,0,0c0,0,0,0,0,0c-0.3,0.4-0.2,0.8-0.2,1.3c0,0,0,0,0,0
			l0,0c0,0,0,0,0,0c0.2,0,0.4-0.1,0.7-0.2c0.3-0.1,0.6-0.2,0.9-0.2c0.1,0,0.3,0,0.4,0.1c0.1,0.3,0.2,0.6,0.2,0.9
			c0,0.4,0.1,0.9,0.5,1.2c0.5,1,1.2,1.8,2.3,2.4c0.1,0.3,0.4,0.4,0.6,0.4c0.2,0.3,0.6,0.3,0.9,0.4c0.2,0,0.4,0.1,0.6,0.2l0.1,0.1
			l0.1,0c0.2,0.2,0.5,0.3,0.7,0.3c0.2,0,0.5-0.1,0.7-0.3c0.1,0,0.1,0,0.2,0c0.3,0,0.6,0,0.7-0.3l4,1.5c0.5,0.4,0.5,1,0.5,1.5
			c0,0.4-0.1,0.9,0.2,1.2c0,1.2,0.8,1.7,1.7,2.3c0.2,0.1,0.4,0.2,0.6,0.2c0.5,0.1,0.9,0.3,1,0.9c0.3,0.3,0.5,0.5,0.8,0.5
			c0.2,0,0.4-0.1,0.6-0.3c0.1-0.2,0.2-0.5,0.4-0.5c0,0,0.1,0,0.1,0c0.2,0.1,0.5,0.1,0.7,0.1c0.1,0,0.1,0,0.2,0
			c0.6,0.1,1.3,0.2,2,0.2c0.9,0,1.9-0.1,2.8-0.2l0.7-0.1c0.6,0.1,1.4,0.2,2.1,0.2c0.6,0,1.2-0.1,1.7-0.2c0.2-0.1,0.3-0.2,0.4-0.3
			c0.2,0,0.4-0.1,0.7-0.1c0.2-0.1,0.4-0.1,0.6-0.1c0.2,0,0.4,0.1,0.5,0.2c0,0.2,0,0.4-0.1,0.6c-0.6,0.8-1,1.3-1.5,1.3
			c-0.4,0-0.8-0.2-1.4-0.5l-0.2-0.1c-0.4-0.2-0.8-0.5-1.3-0.5c-0.3,0-0.5,0.1-0.8,0.3c-0.9,0.2-1.7,0.6-2.3,1.4
			c-0.5,0.1-0.7,0.5-0.7,1c-0.1,0-0.2,0-0.3,0.1c-0.4,0.1-0.5,0.4-0.6,0.6c-0.1,0.3-0.2,0.6-0.7,0.6c-0.7-0.7-2.6-1-4.2-1
			c-1.5,0-2.7,0.3-3.2,0.7c-0.2,0.2-0.3,0.3-0.1,0.6c0.5,1,0.9,2,2.2,2c0.1,0,0.2,0,0.4,0c0.2,0,0.4,0,0.6,0c1.2,0,2.1,0.5,2.8,1.6
			c0.2,0.3,0.3,0.6,0.5,0.9c0,0,0,0,0,0c0.3,0.9,0.9,1.5,2,1.9l0.1,0.6l-0.7,1.3c-0.4,0.9-0.3,1.9,0,2.8c0.3,0.6,0.7,1.1,1.3,1.3
			c0.1,0.2,0.3,0.3,0.5,0.4c0,0,0,0,0,0c0.1,0,0.1,0.1,0.2,0.1c0.3,0,0.6-0.2,0.8-0.4l0.2-0.1l1,0.1c0.2,0.3,0.6,0.4,0.9,0.5
			c0.2,0,0.4,0.1,0.5,0.2c0.3,0.5,0.7,0.7,1.2,1c0.2,0.1,0.5,0.3,0.7,0.4l0.1,0.1c0.2,0.2,0.5,0.4,0.7,0.4c0.2,0,0.3-0.1,0.4-0.3
			c0.3-0.6-0.4-1.1-0.6-1.2c-0.2-0.1-0.4-0.2-0.7-0.4c-0.6-0.3-1.2-0.6-1.5-1.3l0.7-0.9c0.8-0.3,0.7-0.8,0.6-1.4
			c0-0.3-0.1-0.5,0-0.8c0.5-0.3,0.9-0.4,1.2-0.4c0.4,0,0.7,0.1,1,0.4c0.2,0.4,0.6,0.4,0.9,0.4c0.2,0,0.3,0,0.5,0.1l0.5,0.3
			c1.2,0.7,2.5,1.5,3.3,2.8c0.1,0,0.1,0,0.2,0c0.2,0,0.3-0.1,0.4-0.3c0.1-0.1,0.2-0.2,0.3-0.4c0.1-0.2,0.2-0.4,0.4-0.4
			c0.1,0,0.2,0.1,0.4,0.2c0.9,0.9,1.9,1.7,3.3,2.5l0.7,0.4l0.2-0.1c0,0,0,0.1,0.1,0.1c0.1,0,0.2,0.1,0.3,0.1
			c0.3,0.7,0.9,0.9,1.4,1.1l0.3,0.1l1,0.3c0.6,0.1,1.2,0.2,1.8,0.3c0.8,0.1,1.7,0.2,2.5,0.4c3.9,0.7,7.4,2.3,10.3,3.8l1.7,0.6
			c0.6,0.2,1.1,0.4,1.7,0.6c0.8,0.2,1.7,0.5,2.4,0.9c0,0,0,0,0.1,0c0.3,0.1,0.5,0.2,0.7,0.4c0.1,0.3,0.3,0.3,0.5,0.3
			c0.1,0,0.2,0,0.3,0.1l0.2,0.1l0.3,0.1c0,0,0,0.1,0,0.1c0.5,0.5,1,0.9,1.6,1.2c1.1,0.8,2.2,1.5,2.6,3l0.1,0.3l0.1,0.3
			c0.1,0.1,0.2,0.1,0.4,0.2c0.7,0.4,1.3,0.8,1.5,1.6l0.1,0.4c0.5,1.8,1,3.7,2.6,5c0.5,0.4,0.7,1.1,0.6,1.8c-0.1,0.2-0.2,0.5-0.3,0.7
			c-0.1,0.3-0.2,0.5-0.3,0.8c0,0.1-0.1,0.1-0.1,0.2c0,0,0,0,0,0c-0.1,0.1-0.1,0.3-0.1,0.4c0,0.1,0,0.1,0,0.2c0,0,0,0.1,0,0.1
			c0.1,0.2,0.2,0.3,0.4,0.4c0,0,0,0,0,0c0.1,0,0.1,0.1,0.2,0.1l0,0c0,0,0,0,0,0c0,0,0,0,0,0c0,0,0,0,0,0l0,0l-0.1,0l0.1,0
			c0,0.1,0.1,0.2,0.2,0.3c0.2,0.2,0.3,0.3,0.1,0.6c-0.4,0.4-0.2,0.9-0.1,1.3c0,0,0,0.1,0.1,0.1c-0.4,0-0.7,0.1-1,0.3
			c-0.4,0.5-1,0.5-1.5,0.6c-0.6,0.1-1.2,0.1-1.6,0.7c-2.3,1.3-3.3,3.5-4.2,5.6c-0.2,0.4-0.3,0.7-0.5,1.1c0,0-0.1,0-0.1,0.1
			c0,0,0,0,0,0c0,0-0.1,0.1-0.1,0.2c0,0,0,0,0,0c0,0,0,0.1,0,0.1c-0.1,0.2-0.2,0.3-0.3,0.5c-0.3,0.5-0.6,1.1-0.2,1.8
			c0.1,0.2,0.3,0.3,0.5,0.4c0,0,0,0,0,0c0,0,0.1,0,0.1,0c0.2,0,0.4-0.1,0.6-0.2c0.2-0.1,0.4-0.2,0.6-0.2l0.6,0
			c0.3-0.1,0.6-0.1,0.9-0.1c0.5,0,1.1,0.1,1.6,0.4c0.6,0.3,1.2,0.5,1.7,0.5c0.3,0,0.6-0.1,0.9-0.2c0.4-0.2,0.8-0.3,1.2-0.3
			c0.5,0,1,0.1,1.5,0.3l0.1,0c0.2,0,0.4-0.1,0.5-0.2c0.1,0,0.2,0,0.4,0c0.3,0,0.5-0.1,0.8-0.3l0,0c0,0,0,0,0,0l0.1,0
			c0.4-0.1,0.6-0.3,0.8-0.6c0.8-1.1,1.1-1.6,1.7-1.6c0.4,0,0.9,0.2,1.8,0.6c0.7,0,1.5-0.1,2.1-0.6c0,0,0.1-0.1,0.1-0.1
			c0.1,0,0.3,0.1,0.4,0.1c0.2,0,0.4,0,0.7-0.1c0.2,0,0.4-0.1,0.7-0.1c0.1,0,0.1,0,0.2,0l0.1,0c0.2,0,0.5,0,0.7,0.1
			c0.1,0,0.1,0,0.2,0c0.1,0,0.3,0,0.4,0.2c0.1,0,0.2,0.1,0.3,0.1c0,0,0,0,0,0c0.1,0.4,0.4,0.6,0.8,0.8c0.2,0.1,0.5,0.3,0.6,0.5
			c0.2,0.5,0.5,0.7,0.9,0.9l0.1,0.1l0.5,0.3l0.2,0.1c0.1,0.4,0.4,0.5,0.7,0.6c0.6,0.5,1,1.1,1.4,1.7c0.5,0.8,1.1,1.6,1.9,2.1
			c0.3,0.2,0.6,0.5,0.8,0.9c0.4,0.5,0.7,0.9,1.3,1c0,0,0,0,0,0c0.1,0,0.2,0,0.2,0c0.1,0,0.2,0,0.2,0l0.4,0v-21.8c0,0-0.1,0-0.1,0
			c0,0-0.1,0-0.1,0c-0.6-1.5-0.3-3,0.2-4.7V102.8z M355.3,99C355.3,99,355.3,99,355.3,99c0,0,0,0.1,0,0.1
			C355.2,99.1,355.2,99,355.3,99z"/>
		<path class="st0" d="M95.4,123.5l0.1-0.1c0.2-0.1,0.4-0.3,0.4-0.5c0-0.1-0.1-0.3-0.2-0.4c-0.4-0.3-0.3-0.6-0.3-0.9
			c0-0.1,0-0.3,0-0.4c0.1-0.2,0.3-0.3,0.5-0.3c0.2,0,0.3,0.1,0.5,0.2c0.1,0,0.2,0.1,0.3,0.2c0.1,0.1,0.1,0.2,0.2,0.2c0,0,0,0,0,0
			c0,0,0.1,0,0.1,0l0.3,0.7l1.4,1.5l0.6,0.7c0.1,0,0.2,0,0.3,0c0.5,0,1-0.2,1.3-0.5c0.5-0.5,0.7-1.3,0.7-2.4l0.1-3.3l0.2-0.2l0-0.6
			l0-0.5c0-0.1,0-0.1,0-0.2c0,0,0,0,0,0l0-0.1l0.2-0.2c0.1-0.1,0.2-0.2,0.3-0.3c0.1-0.2,0.1-0.3,0.1-0.5c0-0.1,0-0.1,0.1-0.2
			c0.1-0.3,0.1-0.6,0.2-0.9c0-0.1,0-0.3,0-0.4c0-0.3,0-0.5,0-0.7c0-0.1,0-0.2,0-0.4c0-0.3-0.1-0.5-0.2-0.8c0-0.1-0.1-0.2-0.1-0.3
			c-0.1-0.1-0.1-0.3-0.2-0.4l-0.1-0.8c-0.3-1.7-0.1-3.5,0.7-5.5c-1.5-2.5-1.5-3.2,0.1-5.1c0.1-0.2,0.3-0.4,0.4-0.5l0.2-0.2
			c0.1,0,0.2-0.1,0.3-0.1c0.3-0.4,0.4-0.9,0-1.3c-0.4-0.1-0.3-0.4-0.3-0.7c-0.2-0.1-0.2-0.3-0.2-0.5c0-0.2-0.1-0.4-0.3-0.5
			c0,0-0.1,0-0.1-0.1c0,0,0,0,0,0c0.1,0,0.1,0,0.2,0.1c0.4,0.2,0.9,0.3,1.4,0.4c0.6,0.1,1.2,0.2,1.7,0.6c0.6,0.9,1.3,1.4,2.2,1.4
			c0.4,0,0.9-0.1,1.4-0.3l0.1-0.1l0.1,0c1.7-0.5,1.9-0.8,1.4-2.7c-0.2-0.1-0.5-0.2-0.8-0.2c-0.4,0-0.8,0.1-1.2,0.2l-0.3,0.1
			c-0.3-0.7,0.1-1.1,0.4-1.6c0.3-0.4,0.6-0.7,0.5-1.2c0.1-0.3,0-0.5-0.3-0.6c-0.4-0.6-0.9-0.7-1.5-0.7c-0.1,0-0.6,0-0.7,0
			c-0.1,0-0.2,0-0.4,0c-0.1,0-0.3,0-0.4,0c-0.1,0-0.3,0-0.4,0c-0.3,0-0.6-0.1-0.6-0.7c0-0.1,0-0.1,0-0.1c0-0.1,0-0.1,0-0.1
			c0-0.1-0.1-0.1-0.1-0.2c0,0-0.1-0.1-0.1-0.1c0,0-0.1-0.1-0.1-0.1c-0.5-0.3-0.8-0.9-0.8-1.7c0-1.6-0.3-3-1.1-4.4
			c-0.7-1.3-1.2-1.9-2.2-1.9c-0.4,0-0.9,0.1-1.6,0.4c-0.1,0-0.1,0-0.2,0c-0.3,0-0.5-0.1-0.8-0.2c-0.3-0.1-0.6-0.2-0.8-0.2
			c-0.4,0-0.7,0.2-0.9,0.6c-0.6,0.3-0.9,0.9-0.9,1.8c0,0.8-0.4,1.2-1.3,1.2c-0.2,0-0.4,0.1-0.6,0.3c-0.2,0.4-0.4,0.6-0.7,0.8
			c-0.3,0.2-0.3,0.5-0.3,0.9c0.1,0.2,0.2,0.4,0.4,0.6c0.3,0.2,0.7,0.4,1.1,0.5c0.3,0,0.6,0.1,0.9,0.2l0.3,0.1
			c0.4,0.1,0.8,0.1,1.3,0.1c0.2,0,0.4,0,0.7,0c0.1,0,0.1,0,0.2,0c1,0,1.6,0.4,2,1.7c0.2,0.6,0.4,1.3,0.5,1.9
			c0.1,0.2,0.1,0.5,0.2,0.7c0,0.1,0,0.1,0,0.2c-0.1-0.1-0.2-0.2-0.3-0.3c-0.3-0.4-0.6-0.7-0.7-1.2c-0.4-1.8-0.5-2.1-1.8-2.1
			c-0.3,0-0.7,0-1.1,0l-0.2,0c-0.2,0-0.4,0.1-0.6,0.2c-0.3,0-0.6-0.1-1-0.1c-2.8-0.2-2.8-0.2-2.9-3L91.4,87
			c-1.1-0.4-1.4-1.3-1.7-2.2c-0.2-0.5-0.3-1-0.7-1.5c-0.6-0.6-0.6-1.4-0.7-2.2c0-0.4-0.1-0.7-0.1-1.1c0,0,0,0,0,0
			c0-0.1-0.1-0.3-0.1-0.4c0.1-0.4-0.1-0.7-0.2-1c-0.1-0.2-0.1-0.4-0.2-0.5c-0.2-0.5-0.5-0.7-1.1-0.8c-0.2,0-0.5,0-0.7,0
			c-0.5,0-1,0-1.5-0.2c-0.4,0-0.8,0-1.3,0.2c-0.2,0.1-0.4,0.1-0.6,0.1c-1.5,0-3.4-1.4-3.8-2.9l1-1.3c0.2-0.2,0.5-0.3,0.8-0.4
			c0.5-0.3,1.1-0.5,1.3-1c0,0,0,0,0,0c0-0.1,0.1-0.2,0.1-0.3c0.1-0.7-0.5-0.9-1.1-1.1c-0.3-0.1-0.6-0.2-0.8-0.3
			c-0.2-0.1-0.2-0.2-0.2-0.3c0-0.1,0.1-0.2,0.3-0.3c0.2-0.1,0.3-0.2,0.3-0.3l0.5-0.1l0.6-0.1c0.1,0,0.2,0,0.3,0c0.3,0,0.6,0,0.8-0.2
			c0.1-0.2,0.1-0.5-0.2-0.9l-0.4-0.6c0-0.2,0-0.3,0-0.5c0-0.4,0-0.8-0.3-1.3l0-0.5c-0.3-1.3-1.3-1.5-2.4-1.7l-0.8-0.2l-0.7-0.2
			c0.1-0.2,0.2-0.3,0.4-0.3c0.1,0,0.2,0,0.3,0l0.1,0c0.1,0,0.2,0,0.2,0c0.2,0,0.4-0.1,0.6-0.2c0,0,0.1-0.1,0.1-0.1
			c0,0,0.1-0.1,0.1-0.1c0,0,0-0.1,0-0.2c0,0,0-0.1,0-0.1c0-0.1,0-0.2,0-0.3c0,0,0-0.1,0-0.1c0-0.1,0-0.1,0-0.2
			c-0.2-0.5-0.3-1-0.4-1.4c-0.1-0.5-0.2-0.9-0.4-1.4l0-0.1c-0.2-0.4-0.4-0.8-0.8-0.8c-0.1,0-0.2,0-0.4,0.1c-0.5,0.2-1,0.6-0.7,1.5
			l0.1,0.2c0.2,0.5,0.4,1,0.2,1.5c0,0.1-0.1,0.1-0.1,0.2c0,0,0,0,0,0c-0.1,0.1-0.2,0.2-0.3,0.2c0-0.1,0-0.2-0.1-0.3c0,0-0.1,0-0.1,0
			c-0.1,0-0.1,0-0.2,0c0,0,0,0,0,0c-0.2,0-0.3,0.1-0.5,0.2c0,0,0,0-0.1,0c-0.1,0-0.1,0.1-0.2,0.1c0,0-0.1,0-0.1,0.1
			c0,0.1,0,0.1,0,0.1c-0.2,0.2-0.3,0.3-0.4,0.3c-0.1,0-0.1,0.1-0.2,0.1c0.1-0.1,0.2-0.3,0-0.6c0.2-0.1,0.3-0.3,0.4-0.5
			c0-0.1,0.1-0.1,0.1-0.2c0,0,0,0,0-0.1c0.1,0.1,0.2,0.1,0.3,0.1c0.3,0,0.4-0.2,0.5-0.6C76.1,58.6,75,58,74,57.6
			c-0.1,0-0.2-0.1-0.3-0.1l-0.4-0.7c-0.3-0.6-0.8-0.7-1.1-0.7c-0.2,0-0.3,0-0.5,0.1c-0.2,0.1-0.4,0.1-0.5,0.1
			c-0.6,0-0.8-0.4-0.9-1.2c0-0.1,0-0.2,0-0.4c0-0.3,0-0.6-0.3-0.9c-0.4-0.6-0.8-1-1.3-1.2c0,0,0,0,0,0c-0.3-0.1-0.6-0.2-1-0.2
			c-0.1,0-0.2,0-0.3,0c0,0,0,0,0,0c-0.2,0-0.3,0-0.5,0.1c-0.1,0-0.1,0.1-0.2,0.1l-0.6-0.3l-0.6-0.3c-0.1,0-0.2,0.1-0.3,0.1
			c-0.2,0-0.4,0.2-0.6,0.3c-0.2,0.1-0.3,0.3-0.5,0.3c-0.1,0-0.1,0-0.2,0c0-0.1,0-0.2-0.1-0.3l-0.4-0.1l-0.4-0.1c0-0.1,0-0.1,0-0.2
			c0-0.7,0-1.3-0.1-1.9c0,0,0-0.1,0-0.1c0-0.2,0-0.4-0.1-0.6l-0.4-0.6l-0.2-0.1c0-0.1,0-0.2,0-0.3c0.1-0.3,0-0.6-0.1-0.7
			c-0.1-0.2-0.3-0.2-0.7-0.2c0,0,0,0,0,0c-0.7,0.4-1.3,0.6-1.9,0.6c-1,0-2.1-0.5-3.2-1.6c-0.2-0.2-0.4-0.4-0.6-0.5l-0.3-0.2
			c-0.4-0.3-0.7-0.5-1-0.5c-0.5,0-0.8,0.5-1.2,1l-0.2,0.3l-0.1,0.9c-0.2,0.1-0.4,0.2-0.7,0.2c-0.4,0-0.8-0.2-1.1-0.3l-0.1-0.1
			c0-0.1-0.1-0.1-0.2-0.2c0-0.1-0.1-0.1-0.1-0.2c-0.2-0.2-0.4-0.4-0.7-0.6c-0.3-0.3-0.4-0.7-0.5-1.1c-0.1-0.4-0.2-0.9-0.5-1.2
			l-0.7-1.6c-0.2-0.4-0.5-0.6-0.8-0.8c-0.3-0.2-0.7-0.4-0.8-0.8c-0.6-1.2-1.7-1.9-2.7-2.3l-7-5.4c-0.1-0.1-0.3-0.2-0.5-0.2l-0.2,0.1
			c-0.2-0.1-0.4-0.1-0.7-0.1l-0.2,0c-0.6-1-1.4-1.9-2.6-2.3l-0.5-0.3l-0.7-0.8c-0.2-0.4-0.5-0.6-0.8-0.9c-0.3-0.2-0.6-0.4-0.8-0.8
			l-0.1-1c0.1-1.2-0.8-1.6-1.6-1.9l-0.2-0.1c0,0-0.1,0-0.2-0.1c-0.1,0-0.2-0.1-0.3-0.1l-0.1-0.2c-0.7-2.1-1.5-4.4-4.1-5.1
			c-0.1,0-0.2-0.2-0.3-0.4c-0.1-0.1-0.1-0.3-0.2-0.4l-0.2-0.2c-0.3-0.3-0.6-0.7-1-0.7c-0.1,0-0.1,0-0.2,0c0,0,0,0,0,0
			c-0.2,0.1-0.4,0.2-0.6,0.4c-0.2,0.2-0.5,0.3-0.8,0.3c-0.3,0-0.8-0.1-1.3-0.3c-0.8-0.4-1.7-0.5-2.6-0.5c-0.6,0-1.2,0.1-1.8,0.3
			c-1.3,0.4-2.5,0.5-3.7,0.5l-0.2,0L8.5,17c-1.2-1.6-2.5-2.5-4.1-3c-0.2,0-0.3,0-0.5,0c-0.2,0-0.3,0-0.5,0c-0.2,0-0.4,0-0.5,0.1
			c-0.2,0.1-0.5,0.1-0.7,0.2c-0.7,0.1-1.4,0.2-1.5,1.2c-0.2,0.8-0.2,1.6,0,2.3c0,0.3-0.1,0.6,0.3,0.7c0.1,0.2,0,0.4-0.1,0.6
			c-0.1,0.2-0.2,0.3-0.2,0.5c0,0.1,0.1,0.2,0.3,0.3c0,0,0,0,0,0c0,0.1,0,0.2,0,0.3l2.3,3.7c0.2,0.4,0.6,0.7,0.9,0.9l0.2,0.1L6,26.4
			l1,1.4c0.2,0.6,0.7,0.8,1.2,1c0.5,0.2,1,0.4,1.2,0.9c0.1,0.4,0.4,0.6,0.7,0.7l1.6,1.4c0.1,0.1,0.2,0.3,0.2,0.4
			c0.2,0.4,0.4,0.8,0.9,0.9c2.3,0.3,3.9,1.4,5.1,3.4c0.1,0.2,0.4,0.4,0.6,0.6c0.1,0.1,0.2,0.2,0.3,0.3l0,0c0,0,0,0,0,0c0,0,0,0,0,0
			c0,0,0,0,0,0l0,0l0,0c0,0,0,0,0,0c0.1,0.5,0.2,1,0.7,1.4c0.5,0.7,1.1,1.3,1.8,1.8c0.8,0.7,1.7,1.4,2.1,2.4c0,0,0,0,0,0
			c0.1,0.1,0.1,0.3,0.1,0.5c0,0.1,0,0.2,0.1,0.3c0,0.1,0,0.2,0.1,0.4c-0.5,0.7-0.4,1.5,0.1,2.3c0.3,0.8,1,0.8,1.7,0.9l0.2,0
			c1.4,0.1,2.6,0.6,3.9,1.1l0.3,0.4c0.9,0.2,1.5,0.8,2.1,1.4c0.2,0.2,0.4,0.4,0.5,0.5c0.2,0.3,0.5,0.7,1,0.7c0.1,0,0.1,0,0.1,0
			c0,0,0,0,0,0c0,0.2,0,0.4,0,0.7c0,0.3,0,0.7,0,1.1c0.2,0.5,0.4,1.1,0.6,1.6c0.5,1.3,1,2.7,1.1,4.2c0.1,1.2,0.5,2.3,0.9,3.3
			c0.4,1,0.8,2,0.9,3.1c0,0.4,0.4,0.6,0.7,0.7l0.1,0l0.1,0.1c2.1,0.5,4.1,1.1,5,3.3c0.2,0.6,0.6,1.1,1,1.6c0.3,0.3,0.5,0.6,0.7,1
			c0.1,0.2,0.2,0.4,0.5,0.4c0.1,0,0.1,0,0.2,0c0.3,0.5,0.6,0.8,1,1l0.4,0.6l0.4,0.6c0,0.1,0,0.2,0,0.3c0.2,0.3,0.3,0.6,0.5,0.8
			c0.5,0.9,1,1.9,1.7,2.7l0,0l0,0c-0.1,0.4-0.1,0.8,0.3,1.1c1.1,0.8,1.5,1.9,1.9,3.1c0.2,0.7,0.4,1.3,0.8,1.9
			c0.2,0.6,0.5,1.2,1.1,1.5c0.3,0.1,0.4,0.4,0.5,0.7l0.1,0.1c0,0,0,0,0,0c0,0,0,0,0,0c-1.4,1.3-1.3,1.8,0.4,3.7l1.7,2.2
			c0.1,0.3,0.3,0.5,0.5,0.7c0.2,0.1,0.3,0.3,0.5,0.4c0.2,0.2,0.5,0.3,0.7,0.5c0.2,0.1,0.4,0.2,0.6,0.3c0.1,0.2,0.1,0.4,0.3,0.5
			c0.3,0.9,0.8,1.7,1.6,2.5c0,0.6,0.4,0.9,0.7,1.2c0.1,0.1,0.2,0.2,0.3,0.2c0.9,0.8,2,1.6,3.4,2.4c0.1,0.2,0.2,0.4,0.4,0.5
			c0.1,0,0.1,0,0.2,0c0,0,0,0,0,0l0,0l0,0.1l0.3,0.2l0.4,0.2c-0.1,0.3,0,0.5,0.2,0.7c0.3,0.4,0.4,0.9,0.5,1.3
			c0.2,0.8,0.5,1.7,1.4,2.1c0.2,0.4,0.5,0.7,1.1,0.7c0,0,0,0,0,0l1.4,1.1c0.2,0.3,0.4,0.6,0.9,0.6c0,0,0,0,0,0l0.8,0.6
			c0.2,0.4,0.5,0.6,1,0.7c0.4,0.1,0.6,0.5,0.8,0.8c0.3,0.4,0.5,0.9,1.2,0.9c0,0,0,0,0,0c0,0.1,0.1,0.1,0.1,0.2c0,0,0,0,0,0
			c0,0,0.1,0,0.1,0c0,0,0,0,0.1,0c0.8,1,1.9,1.5,2.9,2.1l0.5,0.3c2,1.1,4.1,2.2,5,4.6c0.3,0.8,1,1.2,1.6,1.6
			c0.1,0.1,0.3,0.2,0.4,0.3l0,0.1c0.1,0.6,0.2,1.3,1,1.3c0.1,0.4,0.4,0.6,0.7,0.6l0.5,0c0.4,0.8,0.8,1.2,1.3,1.2
			c0.3,0,0.7-0.2,1.1-0.5c0-0.1,0-0.1,0-0.2c0-0.2,0-0.3,0.1-0.4c0.1-0.2,0-0.5-0.2-0.7c-0.1-0.2-0.2-0.4-0.2-0.6
			c0-0.1,0.2-0.2,0.4-0.3c0.2-0.1,0.3-0.1,0.5-0.1c0.6,0,1.1,0.5,1.4,0.8c0.7,0.8,1.6,0.9,2.4,0.9C95.2,123.5,95.3,123.5,95.4,123.5
			z"/>
		<path class="st0" d="M197.6,104.9c0.1,0.1,0.1,0.2,0.2,0.3c0.1,0.1,0.1,0.2,0.2,0.3c0,0.3,0.1,0.5,0.2,0.6
			c-0.1,0.4,0.1,0.7,0.4,0.9c0.1,0,0.1,0,0.2,0c0.2,0,0.3-0.2,0.4-0.4c0-0.1,0.1-0.1,0.1-0.1l0.6-0.3c0.1-0.2,0.3-0.3,0.5-0.5
			c0.5-0.4,0.9-0.8,0.8-1.6l0,0v0l0.1-0.1c0-0.1,0-0.1-0.1-0.2c0-0.1-0.1-0.3-0.1-0.4c-0.1-0.1-0.1-0.3-0.1-0.4c0,0,0-0.1,0-0.1
			c0,0,0-0.1,0-0.1c0.1,0,0.1,0,0.2,0c0.1,0,0.2,0,0.3,0c0.2,0,0.3,0,0.5-0.1c0.1-0.1,0.1-0.3,0.1-0.5c0-0.2,0-0.5,0-0.7
			c0-0.6,0-1.2-0.2-1.4c-0.1-0.1-0.1-0.1-0.3-0.1c0,0,0,0,0,0c-0.7,0-0.7-0.3-0.7-0.6c0-0.1,0-0.3-0.1-0.4c-0.6-1.1-0.1-2.1,0.5-2.9
			c0.3-0.2,0.2-0.5,0.1-0.7c-0.1-0.4,0-0.8,0.1-1.1c0.1-0.2,0.1-0.3,0.1-0.5c-0.1-0.3,0-0.6,0.1-0.7c0.1-0.1,0.2-0.1,0.3-0.1
			c0.1,0,0.2,0,0.4,0.1c0.6-0.3,1.3-1.5,1.5-2.5c0.2-0.8,0.2-1.4,0-1.7c-0.1-0.2-0.3-0.4-0.5-0.4c-0.3-0.1-0.5-0.2-0.6-0.4
			c-0.1-0.2-0.1-0.5,0.1-0.9c0.2-0.6,0.3-1.5-0.2-2.3c-0.2-0.2-0.2-0.4-0.2-0.6c0-0.1,0.1-0.1,0.1-0.1c0.7-0.2,0.9-0.8,1-1.3
			c0.1-0.3,0.2-0.6,0.3-0.8c0.5-0.4,1-0.6,1.6-0.9c0.9-0.4,1.9-0.8,2.4-1.8l1-1c0.6-0.8,1.4-0.9,2.2-1.1c0.4-0.1,0.8-0.1,1.2-0.3
			l0.1-0.1c0.1-0.2,0.2-0.4,0.5-0.5c0.3-0.3,0.6-0.5,0.4-1c-0.5-0.9-0.5-1.6,0.1-2.3c0.2-0.2,0.2-0.4,0.2-0.5c0,0,0,0,0,0
			c0-0.1,0-0.1,0-0.2c-0.1-0.2-0.2-0.3-0.5-0.4c-0.7-0.2-1.1-0.5-1.2-0.8c-0.1-0.3,0-0.7,0.4-1.3c0.3-0.5,0.5-0.8,0.3-1.4
			c-0.7-2.1,0.3-3.6,1.3-4.7c0.2-0.3,0.4-0.5,0.6-0.8c0.4-0.4,0.8-0.9,0.9-1.5c0-0.1,0.1-0.3,0.1-0.4c0.2,0,0.4,0.1,0.5,0.1
			c0.2,0.1,0.4,0.1,0.6,0.1c0.2,0,0.3,0,0.4-0.1c0.2,0,0.4-0.1,0.6-0.1c0.7,0.1,1.5,0.1,2.2,0.1c1.1,0,2.1,0,3.2,0.3
			c0.3,0.1,0.6,0.1,0.9,0.1c0.8,0,1.3-0.4,1.8-1.2l0.7-1c0.3-0.6,0.4-0.9,0.3-1.1c-0.1-0.2-0.5-0.3-1.3-0.4
			c-0.2-0.2-0.3-0.5-0.5-0.7c-0.1-0.1-0.1-0.2-0.2-0.2c-0.2-0.2-0.4-0.5-0.6-0.7c0,0-0.1-0.1-0.1-0.1c-0.9-0.8-1.9-1.5-2.8-2.1
			c-0.7-0.5-1.4-0.9-2.1-1.5c-0.2-0.4-0.6-0.7-1-0.7l-0.4-0.2c-0.8-0.4-1.1-1.2-1.5-1.9l-0.1-0.2c0.1-0.1,0.1-0.2,0-0.3
			c0.2-0.4,0.5-0.8,0.8-1.2c0.4-0.4,0.8-0.9,0.9-1.5c0.4-0.5,0.1-0.9-0.2-1.3c-0.1-0.1-0.1-0.2-0.2-0.2c-1.7-1.2-2.4-3-3.1-4.8
			c-0.2-0.6-0.5-1.2-0.8-1.8c-0.2-0.4-0.1-0.5,0.2-0.8c1-0.8,0.7-1.8,0.3-2.6c-0.1-0.1-0.2-0.2-0.3-0.3c0.1-0.5,0.4-0.6,0.9-0.9
			c0.6-0.3,0.9-0.6,1.1-1c0.1-0.4,0.1-0.8-0.2-1.3c-0.1-0.1-0.3-0.2-0.4-0.2l-0.3,0c-0.1,0-0.3,0-0.4-0.2c-0.2,0-0.3-0.1-0.3-0.2
			c-0.1-0.1-0.1-0.3,0-0.5c0.4,0,0.7-0.2,1-0.4c0.3-0.2,0.6-0.4,1-0.4c0.1,0,0.2,0,0.4,0c0,0,0.1,0,0.1,0c0,0,0,0,0,0
			c0,0,0.1,0,0.1,0c0.1-0.1,0.1-0.3,0-0.5l-0.1-0.2c-0.2-0.5-0.4-1.1-0.9-1.3c0,0,0,0,0,0c-0.2-0.1-0.4-0.1-0.7-0.1c0,0,0,0,0,0
			c-0.2,0-0.5,0-0.7,0c-0.4,0-0.8,0-1.2,0c-0.3,0-0.5,0-0.7,0c0,0-0.1,0-0.1,0c-0.6-0.6-1.2-1-1.8-1.2c0,0,0,0,0,0
			c-0.4-0.1-0.8-0.2-1.3-0.2c-0.3,0-0.6,0-1,0.1c-1.1,0.2-2.1,0.3-3.1,0.3c-1.1,0-2.2-0.1-3.2-0.4c-0.2-0.2-0.3-0.3-0.5-0.4
			c0,0,0,0,0,0c-0.1,0-0.1-0.1-0.2-0.1c-0.1,0-0.3,0-0.4,0.1c-0.2,0.1-0.5,0.2-0.7,0.4c-0.4,0.2-0.8,0.5-1.3,0.5
			c-0.4,0-0.8-0.2-1.2-0.7c-0.1-0.1-0.2-0.2-0.4-0.2c-0.2,0-0.5,0.1-0.7,0.3c-0.2,0.2-0.4,0.3-0.5,0.4c-0.5,0.4-1.1,0.8-1.3,1.6
			c0,0.1-0.1,0.1-0.1,0.2c-0.1,0.3-0.1,0.6-0.2,0.9c-0.2,0.8-0.4,1.7-0.7,2.4c-0.3,0.8-0.3,1.6-0.2,2.3c0,0.6,0.1,1.3-0.1,1.9
			c-0.3,0.3-0.3,0.7-0.3,1l0,0.2c0,1.2-0.5,1.8-1.5,1.8c-0.2,0-0.3,0-0.5,0c-0.1,0-0.3,0-0.4,0c-1,0-1.3,0.9-1.5,1.6
			c-0.1,0.2,0,0.4,0,0.6c0,0.3,0.1,0.6-0.1,0.8c0,0.1-0.1,0.2-0.2,0.4c-0.2,0.4-0.4,0.9,0.1,1.3c0.2,0.2,0.3,0.3,0.3,0.4
			c0,0.1-0.2,0.2-0.3,0.4c-0.1,0.1-0.3,0.2-0.3,0.3c-0.4,0.2-0.8,0.5-1,0.9c-0.7,0.3-1.1,0.7-1.4,1.2c-0.2,0.6-0.2,1.3,0.2,2.2
			c0.1,0.3,0.1,0.5,0.1,0.9c-0.7,0.5-1.1,1.1-1.3,2.1c-0.4,0.1-0.6,0.6-0.7,1c-0.1,0.3-0.2,0.5-0.3,0.5c0,0-0.1,0-0.1,0
			c-0.3-0.2-0.7-0.2-1.1-0.2c-0.5,0-1,0.1-1.5,0.3c-0.5,0.1-1,0.3-1.5,0.3c-0.3,0-0.5,0-0.7-0.1c-0.1,0-0.1,0-0.2,0
			c-0.7,0-1.4,0.3-1.8,0.9c-0.4,0.5-0.8,0.7-1.4,0.7c-0.4,0-0.7-0.1-1.1-0.2c-0.4-0.1-0.7-0.2-1.1-0.2c-0.1,0-0.2,0-0.3,0
			c0-0.1-0.1-0.2-0.1-0.3l-0.7-0.4l-0.6,0c-0.1-0.1-0.3-0.3-0.4-0.4c-0.1,0-0.1-0.1-0.2-0.1c-0.5-0.4-1-0.7-1.5-0.9
			c-0.1,0-0.1,0-0.2-0.1c-0.3-0.1-0.6-0.2-1-0.2c-0.1,0-0.2,0-0.2,0c-0.1,0-0.3,0-0.4,0c-0.3,0-0.6,0-0.9,0.1c-0.3,0-0.7,0.1-1,0.1
			l-1,0c-1.1,0-2.3,0.1-3.3,1.1c-0.6,0.3-0.7,0.9-0.8,1.4c-0.1,0.4-0.1,0.9-0.5,1.2c-0.1,0-0.1,0-0.1,0.1c0,0,0,0.1,0,0.1
			c-0.5,0.1-1,0.4-1.4,0.6c-0.6,0.3-1.1,0.7-1.8,0.7c-0.2,0-0.4,0-0.7-0.1c0,0-0.1,0-0.1,0.1c-0.1,0-0.2,0.1-0.2,0.2
			c-0.1,0-0.2,0-0.2,0c-0.5,0-0.9-0.1-1.3-0.3c-0.4-0.1-0.9-0.3-1.3-0.3c-0.1,0-0.1,0-0.2,0l-0.6-0.1c-0.2-0.1-0.4-0.2-0.7-0.2
			c-0.3,0-0.5,0.1-0.8,0.1c-0.3,0.1-0.5,0.1-0.8,0.1c-0.1,0-0.1,0-0.2,0c-0.8,0.2-1.5,0.5-2.1,0.9c-0.4,0.3-0.8,0.5-1.2,0.5
			c-0.4,0-0.8-0.1-1.2-0.4l-0.1,0c-0.2-0.1-0.4-0.2-0.7-0.2c-0.1,0-0.1,0-0.1,0c-0.5-1-1.4-1.6-2.3-2.1l-0.3-0.2l-0.3-0.1
			c-0.1-0.1-0.2-0.2-0.3-0.3c-0.1-0.1-0.2-0.2-0.2-0.3c-0.3-0.4-0.7-0.7-1.2-1c-0.1-0.3-0.4-0.6-0.7-0.7c-0.8-1.2-1.8-2.7-2.3-4.3
			c0.3-0.1,0.5-0.3,0.6-0.5c0-0.1,0-0.3,0-0.4c-0.1-0.1-0.1-0.2-0.2-0.2c-0.1,0-0.3,0.1-0.4,0.3l-0.3,0c-1,0-2,0.1-2.7,1.1
			c0,0,0,0.2,0,0.2c-0.3,0.4-0.5,0.7-0.8,1.1c-0.7,0.9-1.4,1.8-1.7,2.9c-0.1,0.5-0.2,1.1-0.3,1.6c-0.2,1.5-0.4,3-1.4,4.3
			c-0.2,0.1-0.3,0.3-0.3,0.4c0,0.2,0.1,0.4,0.2,0.6c0.3,0.2,0.3,0.5,0.4,0.7c0,0.2,0.1,0.4,0.2,0.6l0,0.3c0,0.3,0,0.6,0,0.9
			c-0.1,0.8-0.2,1.6,0.7,2.1c1.2,0.7,1.7,1.7,1.8,3.3l0,0.3c-1.3,0.8-1.5,1.7-0.8,3.3c0.2,0.3,0.3,0.6,0.5,0.9
			c0.6,1,1.2,1.9,0.9,3.2c-0.1,0.1-0.1,0.2-0.1,0.2c0,0.1,0.1,0.1,0.2,0.1c0.7,0,1.4,0.1,1.7,0.6c0.2,0.3,0.1,0.8-0.2,1.4
			c-0.4,0.4-0.4,0.8,0,1.4c0.4,0.4,0.7,0.6,1.2,0.6c0.4,0,0.9-0.2,1.4-0.7c0.5-0.4,0.9-0.6,1.3-0.6c0.3,0,0.7,0.1,1.1,0.4l1,2.3
			l-0.7,2c0,0,0,0,0,0c-0.6,0.8-0.9,1.1-0.9,1.4c0,0.3,0.3,0.5,0.9,0.9l0,0.1c0.1,0,0.2,0.1,0.3,0.1c0.3,0.1,0.5,0.2,0.7,0.3
			c0,0,0.1,0.1,0.1,0.1c0.2,0.5,0.1,1.1,0.1,1.6c0,0.6-0.1,1.2,0.2,1.8c0.3,0.3,0.4,0.7,0.5,1.1c0.1,0.4,0.2,0.9,0.5,1.3l-0.1,2.2
			c-0.1,0.2-0.2,0.4-0.2,0.6c0,0,0,0,0,0c0,0.1,0,0.1,0,0.2c0.1,0.5,0.5,0.8,0.7,0.9c0.1,0,0.2,0,0.2,0.1c0,0,0,0,0.1,0
			c0,0,0.1,0,0.1,0c0.4,0,0.7-0.3,1.1-0.5c0.2-0.1,0.3-0.2,0.5-0.3l1,0.1l0.1,0.2c0.3,0.5,0.6,0.9,1,1.1c0,0,0,0,0,0
			c0.1,0,0.1,0.1,0.2,0.1c0.3,0,0.6-0.1,0.9-0.3c0.1,0,0.1-0.1,0.2-0.1c0.2,0,0.4,0.1,0.5,0.4c0.2,0.4,0.5,0.6,0.9,0.6
			c0.2,0,0.5-0.1,0.8-0.2c0.2-0.1,0.4-0.3,0.6-0.4c0.8-0.6,1.7-1.1,2.6-1.1c0.6,0,1.2,0.2,1.8,0.7c0.1,0,0.2,0,0.2-0.1l0.1-0.1
			l0.2,0l0.1-0.1c0.3-0.1,0.6-0.2,0.9-0.2c0.1,0,0.2,0,0.3,0c0,0,0,0,0,0c0,0.2-0.1,0.5-0.2,0.7c-0.1,0.5-0.3,1-0.1,1.5
			c0,0.2,0.1,0.5,0.2,0.7c0.1,0.4,0.2,0.7,0.2,1.2c0.1,0.3,0,0.5-0.1,0.7c-0.1,0.2-0.2,0.4-0.2,0.7c0.4,0.1,0.8,0.2,1.2,0.2
			c0.6,0,1-0.2,1.4-0.7c0.8-1.1,1.6-1.6,2.5-1.6c0.6,0,1.2,0.2,1.9,0.8c0.3,0.2,0.7,0.4,1.1,0.4c0.4,0,0.7-0.3,0.9-0.9
			c0.3-0.1,0.6-0.3,0.8-0.4c1.1-0.5,2.2-1,2.2-2.6c0-0.1,0.1-0.1,0.1-0.1c0.1,0,0.3,0.1,0.4,0.2c0.1,0.1,0.2,0.2,0.3,0.2l0.3,0.3
			c0.2,0.3,0.5,0.5,0.8,0.6c0.3,0.3,0.8,0.4,1.2,0.5c0.2,0,0.3,0.1,0.5,0.1c0.1,0,0.1,0,0.2,0c0.2,0,0.4-0.1,0.6-0.2
			c0.2-0.1,0.4-0.2,0.6-0.2c0.2,0,0.4,0.1,0.6,0.3l-0.3,0.7c-0.3,0.8,0.2,1.3,0.7,1.7c0.2,0.1,0.5,0.2,0.7,0.2
			c0.2,0,0.4-0.1,0.6-0.2c0.8-0.7,1.6-1,2.4-1c0.2,0,0.5,0,0.7,0.1c0.3,0.3,0.7,0.4,1.1,0.4c0.2,0,0.5,0.1,0.8,0.2
			c0.6,0,1.1,0.4,1.5,0.8c0.8,0.9,0.6,2,0.4,3c-0.2,1.2,0,2.1,0.6,3c0.2,0.2,0.5,0.3,0.8,0.3c0.3,0,0.6-0.1,0.9-0.3
			c0.7-0.3,1.5-0.5,2.2-0.8c0.8-0.3,1.5-0.5,2.3-0.8l0.2-0.1c0.5-0.2,0.9-0.3,1.2-0.8c0,0,0,0,0,0c0,0,0,0,0-0.1
			c0.1,0.1,0.2,0.1,0.3,0.1c0.3,0,0.5-0.2,0.6-0.6c0-0.2,0.1-0.2,0.3-0.2c0,0,0,0,0,0c0.2-0.1,0.5-0.2,0.7-0.2c0.1,0,0.5,0,0.6,0
			c0.5,0,0.9-0.1,1.1-0.8c0.2,0.1,0.5,0.1,0.7,0.1l0.5,0C196.9,104,197.4,104,197.6,104.9z M200.7,104.3
			C200.7,104.3,200.7,104.3,200.7,104.3l-0.1,0.2c0,0,0,0,0,0c-0.1-0.2-0.1-0.2-0.1-0.2l0,0c0,0,0,0,0,0v0
			C200.6,104.3,200.7,104.3,200.7,104.3z M140.3,84.3c0,0,0.1,0.1,0.1,0.1c0,0,0,0,0,0C140.4,84.5,140.4,84.4,140.3,84.3
			C140.3,84.3,140.3,84.3,140.3,84.3z"/>
		<path class="st0" d="M305.3,147.8c-0.1-0.1-0.2-0.1-0.3-0.2c-1.1-0.4-1.9-0.6-2.7-0.6c-1,0-1.9,0.3-2.8,0.9
			c-0.3,0.2-0.7,0.5-1.2,0.5c-0.2,0-0.5-0.1-0.7-0.2c0-0.3-0.2-0.3-0.4-0.3c-0.1,0-0.2,0-0.2-0.1c-0.2,0-0.3,0-0.5,0l-0.2,0l-0.5,0
			c-0.3,0-0.6,0.1-1,0.3c-0.4,0.3-0.9,0.3-1.4,0.3c-0.4,0-0.8,0-1.1,0.2c-0.3,0-0.5,0-0.8,0c-0.3-0.1-0.6-0.2-0.9-0.2
			c-1.1,0-2.2,0.2-3.3,0.4c-0.3,0.1-0.6,0.1-0.9,0.1c-1.1,0.2-2.2,0.3-2.7,1.4c-0.9,2-2.6,2.7-4.3,3.5c-0.4,0.2-0.8,0.3-1.1,0.5
			c-3.1,1-5.4,2.2-7.4,3.8c-0.6,0.5-1.3,1.1-1.3,1.9c-0.1,0.9-0.4,1.7-0.6,2.4c-0.1,0.4-0.3,0.8-0.4,1.3c0,0,0,0.1,0,0.1
			c0,0,0,0,0,0.1c-0.1,0-0.1,0-0.2,0c-0.5,0-0.9,0.4-1.2,0.7l-0.2,0.2c-0.3,0.4-0.6,0.8-0.5,1.3c0.2,1.6-0.9,2.3-1.9,2.9l-0.2,0.1
			c-0.2,0.1-0.4,0.3-0.6,0.4c0,0,0,0,0,0c-0.1,0.1-0.1,0.1-0.2,0.2c-0.4,0.1-0.7,0.3-1.1,0.6c0,0-0.1,0.1-0.1,0.1
			c0.1,0.2,0,0.6-0.1,0.9c-0.1,0.4-0.2,0.7,0,0.9c0,0,0.1,0,0.1,0.1c0,0,0,0,0,0c0.1,0.1,0.4,0.2,0.7,0.2c0.1,0,0.2,0,0.3,0l0.4-0.2
			c0.1,0,0.1,0.1,0.2,0.1c0.3,0,0.6-0.1,0.9-0.1c1.2-0.1,2.5-0.2,2.8-1.9c0.8-0.6,0.7-1.4,0.7-2.2c0-0.2,0-0.3,0-0.5
			c0-0.3,0-0.6,0.2-0.7c0.1-0.1,0.1-0.1,0.2-0.1c0.2,0,0.4,0.1,0.6,0.2c0.5,0.1,1.2,0.2,1.9,0.2c1.2,0,2.2-0.3,2.9-0.9
			c0.8-0.7,1.7-1,2.7-1c0.3,0,0.5,0,0.8,0.1c0.1,0,0.2,0,0.4,0c0.3,0,0.5-0.1,0.7-0.2c0,0,0,0,0,0c0.3-0.2,0.4-0.5,0.5-1
			c0,0,0.1,0,0.2,0l0.3-0.4l0.4-0.4c0.3-0.2,0.7-0.3,0.6-0.8c0.3-0.1,0.5-0.3,0.6-0.6l0.1-0.2c0.3-0.4,0.6-0.8,1.2-0.8
			c0.1,0,0.3-0.1,0.4-0.2c0.3-0.3,0.5-0.7,0.6-1.1c0.2-0.6,0.3-1.1,1-1.3c0.8-0.3,1.5-0.6,2.1-1c1-0.6,2.1-1.1,3.3-1.3
			c0.1-0.1,0.3-0.1,0.5-0.1c0.1,0,0.2,0,0.3,0c0.1,0,0.2,0,0.3,0c0.3,0,0.5-0.1,0.6-0.2c0.1-0.1,0.2-0.1,0.4-0.2
			c0.3-0.1,0.5-0.3,0.8-0.5c0.8-0.7,1.8-0.8,2.7-1c1.3-0.3,2.7-0.5,3.5-2c0-0.1,0.2-0.1,0.3-0.1c1.1,0,2-0.5,2.9-1
			c0.4-0.2,0.9-0.5,1.3-0.6c0.1,0,0.2-0.1,0.3-0.1c0,0,0,0,0,0c0.7-0.3,1.1-0.8,1.5-1.4c0.1-0.1,0.2-0.3,0.3-0.4
			C305.9,148.1,305.6,148,305.3,147.8z"/>
		<path class="st0" d="M265.6,150.4c0.5,0,1,0.1,1.4,0.3c0.1,0,0.2,0,0.2-0.1c0.1,0.1,0.3,0.2,0.4,0.2c0.1,0,0.1,0,0.2,0
			c0,0,0,0,0,0c0.1,0,0.2,0,0.2-0.1c0.2-0.1,0.2-0.1,0.1-0.2c1.5-0.5,2.7-1.6,3.9-2.6c0,0,0,0,0.1,0c0,0,0,0,0,0c0,0,0,0,0,0
			c-0.3,0.5-0.4,0.9-0.2,1.2c0.1,0.4,0.5,0.7,1.1,1c0.5,0.4,0.9,0.7,1.4,0.7c0.1,0,0.1,0,0.2,0c0,0,0.1,0,0.1,0
			c0.2,0,0.3-0.1,0.5-0.2c0,0,0.1,0,0.1-0.1c0.1-0.1,0.2-0.1,0.3-0.2c0.5-0.4,1-0.4,1.5-0.4c0.2,0,0.5,0,0.7-0.1
			c0.7-0.5,1.4-0.5,2.1-0.5l0.6,0c0.4,0,0.9,0,1.4-0.1c0.4,0,0.8-0.2,1.1-0.6c0.6,0,1-0.1,1.3-0.3c0.2-0.2,0.3-0.6,0.3-1.2
			c0-1-0.5-1.3-1.1-1.3c-0.1,0-0.5,0-0.7,0c-0.7,0-1.4,0-2.1,0l-1.9,0l-0.2,0c-0.3,0-0.5,0-0.8,0c-0.3,0-0.5,0-0.8,0
			c-0.4,0-0.8,0-1.2-0.1l-0.7,0.7c-0.4,0.5-0.8,0.7-1.2,0.7c-0.5,0-0.9-0.3-1.4-1c-0.2-0.3-0.5-0.5-0.7-0.5c-0.2,0-0.5,0.1-0.7,0.3
			c-0.7,0.6-1.4,0.6-2,0.6c-0.3,0-0.6,0-0.9,0c-0.3,0-0.6,0-0.9,0l-0.2,0l-0.3-0.1c-0.2-0.1-0.3-0.2-0.5-0.2c-0.2,0-0.4,0.1-0.6,0.2
			c-0.3,0.2-0.6,0.3-0.8,0.3c-0.5,0-0.6-0.5-0.7-1c0-0.2-0.1-0.3-0.1-0.5c-0.2-0.3-0.5-0.4-0.7-0.4c-0.2,0-0.4,0.1-0.6,0.2
			c-0.6,0-1,0.2-1.2,0.5c-0.3,0.5,0,1.1,0.3,1.9l0,0.1c0,0,0,0,0,0c-0.3,0-0.5-0.1-0.8-0.1c-0.3,0-0.6,0.1-0.8,0.2c0,0-0.1,0-0.1,0
			c-0.2,0.1-0.4,0.2-0.5,0.4c0,0,0,0,0,0.1c-0.2,0.2-0.3,0.4-0.4,0.8c-0.3,0.9-0.8,1.4-1.4,1.4c-0.4,0-0.9-0.2-1.4-0.5
			c-0.1-0.2-0.3-0.2-0.4-0.2c-0.1,0-0.1,0-0.2,0c-0.1,0-0.1,0-0.2,0c-0.1-0.1-0.2-0.3-0.3-0.4c-0.2-0.4-0.5-0.7-1-0.7
			c-0.1,0-0.2,0-0.3,0c-0.5,0.1-1,0.3-1.5,0.4c-1,0.3-2,0.6-3,0.6c-1.1,0-2.1-0.4-2.9-1.2c-0.1-0.1-0.3-0.1-0.4-0.1c0,0-0.2,0-0.2,0
			c-0.4-0.7-1.1-0.7-1.7-0.7c-0.5,0-0.9,0-1.3-0.3c-0.1-0.2-0.2-0.2-0.4-0.3c-0.1,0-0.2,0-0.3-0.1l-1-0.1c-0.4-0.3-0.8-0.4-1.2-0.4
			c-0.5,0-1,0.2-1.5,0.4c-0.4,0.2-0.8,0.4-1.2,0.4c0,0-0.1-0.1-0.1-0.1c0,0-0.1,0-0.1,0.1c-0.4,0.3-0.8,0.5-1.2,0.7
			c-1.1,0.6-2.1,1.1-2.4,2.6c-0.1,0.1-0.3,0.2-0.4,0.2c-0.2,0-0.3-0.1-0.5-0.3c-0.2-0.1-0.3-0.3-0.5-0.3c-0.1,0-0.1,0-0.1,0
			c0,0,0,0,0,0c-0.1-0.9-0.7-1.3-1.3-1.8l-0.1-0.1l-0.7,0.3c-0.4,0.4-0.4,0.8-0.5,1.3c0,0.2-0.1,0.5-0.1,0.7c0,0.1-0.1,0.1-0.2,0.1
			c0,0,0,0,0,0c-0.5,0.6-0.5,1.1,0,1.7c0.4,0.2,0.7,0.4,1,0.4c0.5,0,0.8-0.3,1.1-0.7c0.1-0.1,0.1-0.2,0.2-0.3
			c0.1,0.5,0.4,0.8,0.8,1.2c0.1,0.1,0.3,0.2,0.4,0.3c0,0,0,0,0,0c0,0,0,0,0,0c0.1,0,0.1,0,0.2,0c0,0,0.1,0,0.1,0
			c0.1,0,0.2-0.1,0.3-0.1c0.1-0.1,0.2-0.1,0.3-0.2c0.1,0.2,0.3,0.3,0.5,0.5c0.2,0.1,0.3,0.1,0.5,0.2c0.6,0.1,1.3,0.1,1.7,0.1l1.6,0
			c0.2,0,0.4,0,0.7,0c0.3-0.1,0.6-0.1,1-0.1c0.4,0,0.7,0,1.1,0.1c0.4,0,0.7,0.1,1.1,0.1c0.3,0,0.6,0,1-0.1l-0.1,0.1
			c0.3,0.5,0.7,0.6,1,0.6c0.1,0,0.3,0,0.5,0l0.3,0c0.1-0.1,0.3-0.1,0.4-0.1c0,0,0.1,0,0.2,0c0.1,0.1,0.2,0.2,0.2,0.5
			c0.2,0.1,0.4,0.2,0.6,0.2c0.1,0,0.1,0,0.2,0l0.9-0.2c1.4-0.4,2.8-0.8,4.2-0.8c0.6,0,1.2,0.1,1.9,0.2c0.1,0,0.1,0,0.3-0.1
			c0.6-0.3,1.3-0.5,2.1-0.6c0.2,0,0.5-0.1,0.7-0.2c0.5-0.2,1-0.2,1.6-0.2c0.3,0,0.6,0,0.9,0c0.3,0,0.6-0.1,0.8-0.2
			c0.3-0.1,0.5-0.2,0.8-0.2c0.9-0.1,1.7-0.4,2.6-0.8C263.6,150.8,264.6,150.4,265.6,150.4z"/>
		<path class="st0" d="M195.2,147.1c-1.2-1.4-2.4-2.7-4.4-2.8c0,0-0.1,0-0.1,0c-0.1,0-0.1,0-0.2-0.1c-0.1-0.1-0.3-0.2-0.4-0.2
			c0,0-0.1,0-0.1,0c0,0,0,0-0.1,0c-0.1,0-0.1,0-0.2,0.1l-0.4,0.3c-0.2,0.2-0.5,0.3-0.7,0.5c-0.5,0.3-1.2,0.5-2,0.5
			c-1.2,0-2.2-0.4-2.8-1.1c0,0,0,0,0,0c-0.1-0.1-0.1-0.2-0.2-0.3c0-0.2,0-0.4,0-0.7c0-0.7,0.1-1.3-0.7-1.8l-1,0
			c-0.3-0.1-0.6-0.2-0.9-0.4c-0.4-0.2-0.8-0.4-1.3-0.4c0,0-0.1,0-0.1,0l-0.3-0.3c-0.3-0.2-0.5-0.3-0.8-0.3c-0.5,0-0.9,0.3-1.4,0.6
			l-2.7,0.1c-0.1,0-0.2,0-0.3,0c-0.1,0-0.2,0-0.3,0c-0.2,0-0.4,0-0.6,0.3c-0.1,0-0.1,0-0.2,0c0,0,0,0,0,0c-1.3-0.1-2.5-0.5-3.8-1.3
			c-0.8-0.5-1.2-1-1.2-1.5c0-0.3,0.2-0.6,0.5-0.9c0.2-0.2,0.4-0.4,0.7-0.6c0,0,0,0,0-0.1c0,0,0,0,0,0l0.5,0c0.2,0.2,0.3,0.3,0.5,0.5
			c0.5,0.4,1.1,0.6,1.7,0.6c0.6,0,1.3-0.2,2-0.5l0.5-0.4c0.4-0.1,0.5-0.4,0.6-0.8c0,0,0-0.1,0-0.1c0,0,0,0,0,0l0.9,0l0.6-0.2
			c0.1,0,0.1,0,0.2-0.1c0.8-0.3,1.5-0.4,2.1-0.4c0.1,0,0.3,0,0.5,0c0.7-0.3,1.1-0.6,1.1-1c0.1-0.4-0.2-0.8-0.7-1.2
			c-0.1-0.1-0.3-0.1-0.5-0.1l-0.2,0c-0.3,0-0.5,0-0.6-0.3c-0.2-0.1-0.3-0.2-0.5-0.2c-0.2,0-0.5,0.2-0.6,0.4
			c-0.9,0.2-1.9,0.2-2.7,0.2l-1.4,0c-0.4,0-0.8,0-1.3,0c-0.3,0-0.6,0-0.9,0l-1,0c-0.8,0-1.8,0-2.8,0.4l-0.4,0.4
			c-0.4,0.2-0.7,0.4-1.1,0.4c-0.3,0-0.5-0.1-0.7-0.4c-0.5-0.7-1.1-0.8-1.5-0.8c-0.3,0-0.5,0-0.8,0.1c-0.2-0.1-0.5-0.1-0.7-0.1
			c0,0-1.4-0.2-1.4-0.2c-0.5-0.9-1.3-1-2.1-1l-0.6,0c-0.2,0-0.4,0-0.6,0c-0.2-0.1-0.5-0.3-0.7-0.5c-0.5-0.4-0.9-0.8-1.5-0.8
			c-0.3,0-0.7,0.1-1,0.4l-0.6,0c-0.2,0.1-0.4,0.1-0.5,0.1c-0.5,0-0.8-0.5-1-1c-0.4-0.8-0.9-1.3-1.8-1.5l-2,0
			c-1.7,0.2-1.9,1.4-2.1,2.6c-0.1,0.3-0.1,0.6-0.2,0.9c-0.4,1.2-0.7,1.6-1.5,1.6c-0.4,0-0.8-0.1-1.5-0.3c-0.4-0.1-0.7-0.2-1.1-0.2
			c-0.2,0-0.4,0-0.6,0.1l0,0l-0.1-0.1l-0.1,0l0,0c-0.2,0-0.5-0.1-0.7-0.1c-0.3-0.1-0.6-0.1-0.9-0.1l-0.3-0.1c-0.7-0.2-1.3-0.3-2-0.3
			c-0.2,0-0.4,0-0.5,0l-0.3,0c-0.2,0-0.3-0.1-0.5-0.1c-0.4,0-0.8,0.1-1.2,0.2c-0.4,0.1-0.8,0.2-1.2,0.2c-0.4,0-0.8-0.1-1.1-0.4
			l-0.3,0c-0.2,0-0.5-0.1-0.7-0.1c-0.2,0-0.5-0.1-0.7-0.1c-1.5-0.2-2.9-0.4-3.2-2.7c-0.1-1.1-1.3-2.7-2.8-2.7c-0.1,0-0.3,0-0.4,0
			c-0.5,0.1-0.9,0.2-1.4,0.2c-1.2,0-2.3-0.3-3.4-0.6c-0.4-0.1-0.9-0.2-1.3-0.3c-0.2-0.2-0.4-0.4-0.6-0.6c-0.5-0.5-0.9-1.1-1.7-1.3
			c0,0-0.1,0-0.1,0c-0.1,0-0.2-0.1-0.4-0.1c-0.3-0.1-0.5-0.2-0.8-0.3c-0.4-0.1-0.8-0.3-1.1-0.3c-0.6,0-1,0.5-1.1,1.5
			c-0.4,0.2-0.7,0.3-1.1,0.3c-0.3,0-0.6-0.1-0.9-0.1c-0.1,0-0.2-0.1-0.3-0.1c0,0,0,0,0,0c-0.3-0.1-0.6-0.2-0.8-0.3
			c-0.9-0.3-1.9-0.6-2.9-0.6c-0.4,0-0.7,0-1,0.1c-0.1,0.1-0.2,0.1-0.3,0.1c-0.2,0-0.3-0.1-0.6-0.3l-0.1-0.5c-0.1,0-0.2,0-0.2-0.1
			c-0.1,0-0.2-0.1-0.4-0.1c-0.2,0-0.3,0.1-0.5,0.2l-0.2,0c-1.4,0.9-1.8,2.3-2,3.6c-0.1,0.2,0,0.3,0.1,0.6c0,0.2-0.1,0.3-0.1,0.5
			c-0.1,0-0.1,0.1-0.2,0.1c-0.3-0.1-0.6-0.2-0.8-0.2c-0.2,0-0.4,0.1-0.6,0.2c0,0,0,0,0,0c-0.3,0.2-0.6,0.6-0.7,1.2
			c-0.2,0.6-0.3,1.2-0.4,2v0.4c0,0-0.1,0-0.1,0c-0.2,0-0.3-0.2-0.4-0.4c-0.1-0.2-0.3-0.5-0.5-0.5c0,0-0.2,0-0.2,0
			c-0.2,0-0.3,0-0.4-0.1c-0.1-0.1,0-0.3,0.1-0.6c0.1-0.2,0.1-0.5-0.1-0.7c-0.2-0.3-0.6-0.5-0.8-0.5c-0.5,0-0.8,0.4-1,0.7
			c-0.1,0.2-0.3,0.3-0.4,0.5c-0.4,0.4-0.2,0.6,0,0.8c0.1,0.1,0.1,0.2,0.2,0.3c0.7,1.3,1.9,2,3.6,2c0.2,0,0.3,0,0.5,0
			c0.2,0,0.5,0,0.7,0c0.5,0,1.1,0,1.6-0.1c0.2,0,0.5,0,0.7,0c1.2,0,2.4,0.3,3.9,1.1c0.5,0.3,1.1,0.6,1.2,1c0.1,0.3-0.1,0.6-0.4,1
			c-0.5,0.6,0,1,0.3,1.3c0.8,0.8,1.7,1.1,2.6,1.1c0,0,8.2,0.9,8.2,0.9l0.3,0.3c0.3,0.1,0.5,0.3,0.7,0.5c0.2,0.2,0.5,0.3,0.7,0.5
			c0.2,0.1,0.3,0.2,0.5,0.2c0,0,0,0,0,0c0,0.1,0.1,0.1,0.1,0.2c0,0,0,0,0,0c0,0.1,0.1,0.1,0.2,0.2c0,0,0,0,0.1,0c0,0,0.1,0,0.1,0
			c0.2,0,0.4-0.1,0.6-0.2c0.1,0,0.2,0,0.3,0c0.3,0,0.5,0.1,0.8,0.2c0.2,0.1,0.4,0.1,0.5,0.2l0.3,0.4c0.4,0.1,0.7,0.3,1.1,0.5
			c0.5,0.3,1,0.6,1.6,0.6c0.4,0,0.7-0.1,1-0.3c0.1-0.1,0.1-0.3,0.2-0.5l1.2-0.9c0.1,0,0.2,0,0.3,0l0.5,0c0.2,0,0.3,0,0.5-0.1
			c0.1,0,0.2,0.1,0.4,0.1c0.2,0,0.4,0,0.6,0c0.2,0,0.5,0,0.7-0.1c0.1,0,0.2-0.1,0.3-0.1l0.1,0.1c0.5-0.1,0.9-0.1,1.4-0.1
			c1.4,0,2.7,0.3,4,0.6c1,0.2,1.9,0.4,2.9,0.5c0.8,0.3,1.6,0.8,2.4,1.2c1.2,0.6,2.4,1.3,3.7,1.6c0.1,0,0.1,0,0.2,0
			c0.3,0.1,0.5,0.1,0.8,0.2c0.2,0.4,0.5,0.5,0.8,0.5c0.1,0,0.2,0,0.2,0c0,0,0.1,0,0.1,0c0.6,0.5,1.2,0.8,1.9,0.8c0.2,0,0.3,0,0.5,0
			c0.4,0,0.8-0.1,1.3-0.1c0.5,0,1,0.1,1.4,0.2l0.5,0.1c0.3,0.3,0.7,0.3,1.2,0.3c0.5,0,1,0,1.3,0.5c0.1,0.2,0.3,0.3,0.5,0.3
			c0,0,0,0,0,0c0,0,0.1,0,0.1,0c0.2,0,0.5-0.1,0.7-0.3c0.3-0.7,0.7-0.8,1.1-0.8c0.2,0,0.3,0,0.5,0c0.2,0,0.3,0,0.5,0
			c0.1,0,0.1,0,0.2,0l1,0c0.3,0.1,0.7,0.2,1,0.3c0.6,0.2,1.1,0.4,1.8,0.4c0.1,0,0.2,0,0.3,0l1.7,0.4c0.1,0.1,0.2,0.1,0.3,0.1
			c0.1,0,0.1,0.1,0.2,0.1c0.2,0.1,0.3,0.1,0.5,0.2c0.1,0,0.2,0,0.4,0.1c0.1,0,0.2,0,0.2,0c0,0,0,0,0,0c0.1,0,0.2-0.1,0.3-0.1
			c0.2,0,0.4,0.1,0.5,0.1c0.7,0,1.4-0.3,2.1-0.7c0.1,0,0.2,0,0.2-0.1c0.1,0,0.3,0,0.4,0c0.2,0,0.4,0,0.5,0c0.2,0,0.3-0.1,0.4-0.1
			c0.3-0.1,0.6-0.2,1-0.2c0.2,0,0.5,0,0.7,0.1l0.4,0.2l0.2,0.2c0.3,0.2,0.6,0.5,1,0.7c0,0,0.1,0,0.1,0.1c0.1,0.1,0.2,0.2,0.4,0.2
			c0.2,0.1,0.3,0.1,0.4,0.1c0,0,0.1,0,0.1,0l0.1,0.1l0.4,0.1c0.1,0.1,0.2,0.2,0.3,0.4c0.3,0.3,0.7,0.5,1.1,0.6
			c0.1,0,0.2,0.1,0.4,0.1c0.7,0.3,1.6,0.4,2.6,0.4l0.3,0c0.5,0,1,0,1.5,0.4c0.5,0.4,1,0.6,1.6,0.6c0.1,0,0.2,0,0.2,0c0,0,0,0,0,0
			c0.2,0,0.4,0,0.6-0.1c0.2-0.1,0.3-0.2,0.4-0.3c0.3-0.5,0.3-1.1-0.1-1.7c-0.1-0.1-0.2-0.3-0.3-0.4c-0.3-0.3-0.7-0.5-1.2-0.7
			c-0.1,0-0.2-0.1-0.2-0.1l-0.3-0.7l0,0l0.1-0.1c0.2-0.2,0.3-0.2,0.5-0.2c0.2,0,0.4,0.1,0.6,0.4c0.4,0.5,0.9,0.7,1.4,0.8
			c1.3,0.1,2.4,0.7,3.4,1.3c0.1,0,0.1,0.1,0.2,0.1c0,0.2,0.1,0.3,0.1,0.5c-0.3,0.3-0.5,0.6-0.6,1c0.3,0.9,0.8,1,1.2,1
			c0.2,0,0.5,0,0.7-0.1c0.2,0,0.4-0.1,0.6-0.1c0.6-0.2,0.7-0.8,0.8-1.3l0-0.2c0.1-0.2,0.2-0.4,0.3-0.4c0.1,0,0.2,0.1,0.2,0.3
			c0.1,0.1,0.1,0.2,0.2,0.3c0,0,0.1,0.1,0.1,0.1c0.2,0.5,0.6,0.9,1.2,0.9l0.1,0c0.5,0,0.6-0.5,0.7-0.9c0-0.1,0-0.3,0.1-0.4l-0.1-0.2
			c-0.1-0.2-0.2-0.5-0.5-0.5h0c-0.2-0.5,0.1-0.7,0.4-0.9c0.1-0.1,0.2-0.1,0.3-0.2l0.2-0.1c0.6-0.5,1.2-0.9,0.7-1.9L195.2,147.1z
			 M110,125.7C110,125.8,110,125.8,110,125.7c0,0-0.1-0.1-0.1-0.1C110,125.7,110,125.7,110,125.7z"/>
		<path class="st0" d="M376.5,127.5c-0.4-0.2-0.4-0.9-0.4-1.5c0-1.3-0.1-2.4-0.4-3.4c-0.2-0.3-0.1-0.7-0.1-1.1
			c0-0.4,0.1-0.9-0.2-1.3c-0.6-0.5-1.1-0.9-1.5-0.9c0,0-0.1,0-0.1,0c0,0,0,0,0,0c-0.4,0.1-0.7,0.6-1.1,1.4c-0.3,0.7-0.8,1.1-1.6,1.2
			c-0.4,0.1-0.7,0.3-0.8,0.7c0,0.3,0.1,0.6,0.3,0.7c0.4,0.2,0.6,0.4,0.6,0.6c0,0.3-0.4,0.5-0.7,0.7c-1.4,0.8-1.8,1.8-1.2,3.5
			c0.4,1.2,0,2.5-1.1,3.4c-0.3,1.2-0.2,1.4,1.2,2.3c0.1,0,0.3,0.1,0.4,0.2c0.2,0.1,0.4,0.2,0.6,0.2c0.1,0,0.2,0,0.3-0.1l0.9-0.5
			c0.1,0,0.1-0.1,0.2-0.1c1.1-0.6,1.7-1.7,2.2-2.8l0.2-0.1c0.1,0,0.2-0.1,0.2-0.1c0,0,0.1,0,0.1,0c0,0.1,0,0.2,0,0.3
			c0,0.2,0,0.5-0.2,0.6c-0.3,0.3-0.5,0.7-0.4,1c0,0.2,0.2,0.4,0.4,0.5c0.2,0.1,0.3,0.1,0.4,0.1c0.4,0,0.6-0.4,0.8-0.7
			c0.1-0.2,0.2-0.3,0.3-0.4c0.2-0.2,0.3-0.3,0.3-0.5c0-0.2-0.1-0.4-0.3-0.6c-0.1,0-0.1-0.1-0.1-0.2c-0.1-0.4-0.3-0.5-0.5-0.5
			c0,0,0,0,0,0c0,0,0,0,0,0c0.2-0.1,0.3-0.2,0.5-0.2c0.1,0,0.4,0,0.5,0c0.2,0,0.4,0,0.6-0.2c0.1-0.1,0.1-0.2,0.2-0.3
			c0.3-0.4,0.6-0.8,0.6-1.2C377.3,128,377.1,127.7,376.5,127.5z"/>
		<path class="st0" d="M184.2,108.1C184.2,108.1,184.2,108.1,184.2,108.1C184.2,108.1,184.2,108.1,184.2,108.1L184.2,108.1z"/>
		<path class="st0" d="M350,136.5c-0.1-0.5-0.6-0.8-1.1-1.1c-0.4-0.2-0.9-0.3-1.4-0.3c-0.1,0-0.2,0-0.3,0c0,0-0.1,0-0.1,0
			c-0.6,0.1-1.1,0.3-1.5,0.6c0,0-0.1,0.1-0.1,0.1c-0.1,0.1-0.3,0.2-0.4,0.3c0,0,0,0,0,0.1c-0.1,0.1-0.2,0.3-0.3,0.4
			c-0.7,1.3-1.7,1.9-2.9,1.9c-0.1,0-0.3,0-0.4,0c-0.1,0-0.2,0-0.3,0c-0.2,0-0.5,0-0.7,0.1c-0.5,0.1-0.7,0.4-0.6,0.9
			c0.1,0.3,0.3,0.5,0.6,0.5c0.1,0,0.1,0,0.2,0c0.2,0,0.4-0.1,0.5-0.1c0.2,0,0.4,0,0.4,0.2c0.1,0.2,0,0.5-0.1,0.8
			c0,0.1-0.1,0.3-0.1,0.4c-0.1,0.3-0.3,0.6-0.5,0.9c-0.4,0.6-0.9,1.3,0,2.3c0,0.2-0.3,0.4-0.5,0.5l-1.5,1c-0.1,0.1-0.3,0.2-0.4,0.2
			c-0.6,0.4-1.3,0.8-1.2,1.8c0.1,0.1,0.3,0.1,0.4,0.1c0.4,0,0.7-0.2,1-0.4c0.3-0.2,0.6-0.3,0.9-0.4c1.2,0,2.5-0.2,3-1.7
			c0.1-0.2,0.3-0.3,0.5-0.4c0.2-0.1,0.5-0.2,0.6-0.6l1.4-2.3c1.4-1.2,2.5-2.4,1.8-4.3c0-0.1,0-0.2,0-0.2c0.1-0.1,0.3-0.2,0.5-0.2
			c0.1,0,0.3,0,0.4,0c0.1,0,0.3,0,0.4,0c0.2,0,0.4,0.1,0.5,0.2c0.6,0,1.4-0.1,1.5-0.8C350.1,136.7,350,136.7,350,136.5
			C350,136.6,350,136.5,350,136.5z"/>
		<path class="st0" d="M228.4,150.9c0-0.2,0-0.4-0.1-0.5c-0.2-0.5-0.6-0.7-0.9-0.8l-0.4-0.3c-0.1-0.6,0.1-1.2,0.3-1.9
			c0.1-0.1,0.2-0.3,0.3-0.4c0.3-0.2,0.6-0.5,0.1-1c-0.1-0.1-0.1-0.3-0.4-0.3c0,0-0.1,0-0.1,0c-0.6,0-1.1,0.3-1.6,0.7
			c-0.3,0.2-0.7,0.5-1.1,0.6c-0.2,0-0.3,0-0.6,0.1c0,0-0.1,0-0.1,0c-0.1,0-0.1,0-0.2,0.1l-1.4-0.3c-0.3-0.3-0.6-0.4-0.8-0.4
			c-0.4,0-0.7,0.3-1,0.6c-0.2,0.2-0.3,0.3-0.5,0.4c-1.1-0.2-1.3-1-1.5-1.9c0-0.1-0.1-0.3-0.1-0.5c-0.2-0.1-0.4-0.1-0.6-0.2
			c0,0,0,0,0,0c-0.4-0.1-0.8-0.2-1.1-0.2c0,0-0.1,0-0.1,0c-0.1,0-0.3,0-0.4,0c-0.9,0-1.7,0.3-2.5,0.8c-0.2,0.2-0.6,0.2-0.8,0.2
			c-0.1,0-0.3,0-0.4,0c-0.1,0-0.2,0-0.4,0c-0.2,0-0.5,0-0.5,0.3c-0.2,1.5-0.6,1.8-1.7,1.8c-0.3,0-0.5,0-0.9,0l-0.2,0
			c-1,0-2.6,0.9-3.6,2.1c-0.7,0.7-0.8,1.5-0.9,2.3c-0.1,0.5-0.1,1-0.3,1.5c0,0.5,0.1,1.3,0.9,1.5c0.3,0.1,0.6,0.2,0.9,0.2
			c0.9,0.3,1.8,0.5,2.8,0.5c0.1,0,0.2,0,0.4,0c0.1,0,0.2,0,0.2,0c0.2,0,0.3,0,0.5-0.1c0.8-0.2,1.5-0.4,2.3-0.6
			c1.2-0.3,2.4-0.7,3.7-0.8c0.2-0.2,0.4-0.4,0.6-0.6c0.3-0.1,0.7-0.1,1-0.2c0.6-0.1,1.2-0.1,1.6-0.5c0.1,0,0.1-0.1,0.2-0.2
			c0,0,0.1-0.1,0.1-0.1c0.1,0.1,0.2,0.1,0.2,0.2c0.1,0.1,0.2,0.2,0.3,0.2c0.4,0.3,0.8,0.7,1.4,0.7c0.1,0,0.3,0,0.4-0.1
			c0.8-0.3,1.7-0.3,2.6-0.4c0.5,0,1-0.1,1.6-0.2C226.8,152.8,228.2,152.6,228.4,150.9z"/>
		<path class="st0" d="M299.8,140.8l-0.2-0.1c-0.5-0.6-1-1-1.6-1c-0.5,0-1,0.2-1.8,0.6c-0.8,0.5-1.5,0.7-2.1,0.7
			c-0.6,0-1.2-0.2-1.7-0.7c0,0,0,0,0,0c0,0,0,0,0,0c0,0,0,0,0,0c-0.4,0.6-0.7,1.1-1.4,1.5c-0.7,0.4-1.1,1.3-1,2.3
			c0,0.5,0.2,0.7,0.5,0.7c0.1,0,0.3-0.1,0.5-0.2c1.2-0.7,2.5-0.8,3.8-0.8c0.4,0,0.7,0,1.1,0l0.8,0c0.2,0.1,0.3,0.1,0.5,0.1
			c0.4,0,0.6-0.3,0.9-0.5c0.4-0.6,1-1,1.7-1l0.6-0.4c0.2-0.2,0.3-0.4,0.3-0.6c0,0,0,0,0,0c0,0,0-0.1,0-0.2
			C300.5,141.2,300.2,141,299.8,140.8z"/>
		<path class="st0" d="M118.5,99.3c0.1,0.1,0.2,0.2,0.3,0.2c0.3,0,0.7-0.3,1-0.5l0.1-0.1c0.2,0,0.3-0.1,0.5-0.2
			c0.2-0.1,0.3-0.2,0.5-0.2c0.1,0,0.2,0,0.2,0.1c0.2,0.9,0.6,1.1,0.9,1.1c0.3,0,0.7-0.2,1-0.6c1.1-1.3,1.7-2.8,1.8-4.2
			c0-0.1,0-0.2-0.1-0.3l-0.5-0.4l-0.1-0.1l-0.1-0.1c0,0,0-0.1,0-0.1c-0.1-0.4-0.4-0.7-0.8-0.7l-1.3-0.7c-0.6-0.2-1.2-0.3-1.8-0.3
			c-0.6,0-1.1,0.1-1.7,0.3c-0.4,0.7-0.5,1.5-0.6,2.2c-0.1,0.8-0.2,1.5-0.6,2.3c-0.3,0.6,0.3,1.3,0.8,1.9
			C118.2,98.9,118.4,99.1,118.5,99.3z"/>
		<path class="st0" d="M89.1,65.7c-0.2-0.1-0.4-0.2-0.5-0.2c-0.1,0-0.2,0-0.3,0.1c-0.1,0.1-0.2,0.3-0.2,0.4c0,0.2,0.1,0.4,0.2,0.5
			c0.6,0.6,0.2,0.9-0.1,1.4c-0.4,0.5-0.5,1.1-0.6,1.7c-0.2,0.4,0,0.6,0.2,0.9c0.1,0.2,0.3,0.3,0.3,0.5c0,0,0,0,0,0.1
			c-0.1,0-0.3,0-0.4,0c-0.1,0-0.2,0-0.4,0.1c0,0-0.1,0-0.1,0c-0.1,0-0.2,0.1-0.3,0.1c-0.1,0-0.1,0.1-0.2,0.1
			c-0.1,0.1-0.2,0.2-0.3,0.3c0,0-0.1,0.1-0.1,0.1C86.1,72,86,72.1,86,72.3c0,0,0,0.1,0,0.1c0,0.1-0.1,0.2-0.1,0.3
			c-0.1,0.6,0.4,0.6,0.8,0.7c0.3,0,0.6,0.1,0.8,0.3c0,0,0.1,0.1,0.2,0.1c0.1,0.1,0.3,0.1,0.4,0.2c0.2,0.2,0.5,0.3,0.7,0.3
			c0.2,0,0.4-0.1,0.5-0.3l0.2-0.2c0.5-0.5,1-0.9,0.6-1.9c-0.2-0.4-0.2-0.7-0.1-0.9C90,71,90.2,71,90.5,71c0.2,0,0.4,0,0.6,0.1
			c0.2,0.1,0.5,0.2,0.7,0.3c0.3,0.2,0.7,0.3,1.1,0.3c0.1,0,0.2,0,0.3,0c0-0.6,0.1-1.2-0.3-1.6c-0.1-0.1-0.1-0.1-0.2-0.1
			c0,0,0,0-0.1,0c-0.2-0.1-0.4-0.2-0.7-0.2c-0.7-0.2-0.8-0.7-0.9-1.4C90.9,67.1,90.2,66.3,89.1,65.7z"/>
		<path class="st0" d="M314.1,49.7C314.1,49.7,314.1,49.7,314.1,49.7c2.7,0,4.2-1.6,4.3-4.4c0-0.8-0.3-1.8-0.9-2.4
			c-0.2-0.3-0.5-0.4-0.7-0.4c-0.1,0-0.2,0-0.2,0c-1.4,0.6-2.6,1.9-3.1,3.3c-0.3,0.8-0.5,2.1,0.2,3.4
			C313.7,49.5,313.8,49.7,314.1,49.7z"/>
		<path class="st0" d="M306.1,81.3c-0.2,0-0.4,0-0.5,0.3c-0.5,0.7-0.5,1.4,0,2.1l0.1,0.5c0.3,0.5,0.5,1,1,1.1c0,0,0,0,0,0
			c0.1,0,0.1,0,0.2,0c0.2,0,0.5-0.1,0.8-0.3c0.6-0.3,1.1-0.4,1.6-0.4c0.2,0,0.5,0,0.7,0c0.2,0,0.5,0,0.7,0c0.3,0,0.6,0,0.8-0.1
			c0,0,0.1,0,0.1,0c0.1,0,0.3,0,0.5,0.1c0.2,0,0.3,0.1,0.5,0.1c0.3,0,0.5-0.2,0.6-0.6c0-0.1,0-0.2,0-0.3c0-0.1,0-0.1,0-0.2
			c0-0.2,0-0.4-0.1-0.5c0-0.1-0.1-0.2-0.1-0.3c0-0.1-0.1-0.2-0.1-0.3c0-0.1-0.1-0.1-0.2-0.2c-0.1-0.1-0.2-0.2-0.3-0.3
			c0,0-0.1,0-0.2-0.1c-0.1,0-0.2-0.1-0.3-0.1c-0.8-0.2-1.4-0.6-1.9-1c-0.1-0.3-0.4-0.4-0.7-0.6c-0.1,0-0.1,0-0.2,0L309,80l-0.4-0.3
			l-0.2-0.4c-0.3-0.3-0.7-0.6-1.1-0.6c-0.3,0-0.5,0.1-0.8,0.4c0,0.1,0,0.1-0.1,0.2c0,0,0,0.1,0,0.1c0,0-0.1,0.1-0.1,0.1l-0.3,0.3
			c-0.3,0.4-0.1,0.7,0.1,0.9c0.1,0.2,0.3,0.4,0.2,0.6C306.3,81.3,306.3,81.3,306.1,81.3C306.2,81.3,306.1,81.3,306.1,81.3z"/>
		<path class="st0" d="M334.4,71.7c0.1,0,0.1,0,0.2,0c0.1,0,0.1,0,0.2-0.1c0,0,0,0,0,0c0,0.2,0,0.4-0.1,0.5
			c-0.1,0.2-0.2,0.4-0.1,0.7l0.6,0.5l0.4,0.3c0.3,0.1,0.6,0.2,0.9,0.2c0.9,0,1.7-0.5,2.4-1l0.4-0.3c0.1,0.1,0.3,0.2,0.4,0.2
			c0.4,0,0.7-0.1,1.1-0.2l0.3-0.1c0.2-0.1,0.5-0.1,0.7-0.2c0.5-0.1,0.9-0.1,1.3-0.6c0-0.1,0-0.1,0-0.2l0.1-0.1
			c0.4-0.2,0.7-0.4,0.7-0.9l-0.7-0.7l-0.4-0.6l-1.4-1c-0.1,0.1-0.3,0.1-0.5,0.1c-0.3,0-0.7-0.1-1-0.2c-0.3-0.1-0.6-0.2-1-0.2
			c0,0-0.1,0-0.1,0c-0.3-0.1-0.6-0.1-0.9-0.1c-1.1,0-2.1,0.3-3.1,0.6c-0.5,0.2-1.1,0.3-1.7,0.4c-0.4,0.1-0.7,0.3-0.8,0.6
			c-0.1,0.4,0,1,0.4,1.5C333.3,71.5,333.8,71.7,334.4,71.7z"/>
		<path class="st0" d="M82.7,58.6l0.1,0.1c1,0.6,2,1.3,2.5,2.6c0,0,0,0,0,0c0,0,0,0,0,0c1.1-0.1,1.7-0.6,1.9-1.5c0,0,0,0,0-0.1
			c0.2,0.1,0.3,0.3,0.5,0.4c0.2,0.2,0.4,0.4,0.7,0.4c0.2,0,0.4,0,0.6,0c1.4,0,1.6-0.6,1.8-2.7c-0.2-0.4-0.5-0.8-1-1
			c-0.5-0.5-1.1-0.5-1.6-0.5c-0.2,0-0.4,0-0.6,0c-0.2,0-0.4,0-0.6,0c-0.1,0-0.2,0-0.3,0c-0.1,0-0.2,0-0.3,0c-0.2,0-0.4,0-0.7-0.1
			c-0.2,0-0.5-0.1-0.7-0.1c-0.6,0-0.9,0.2-1.3,0.6c-0.1,0.3-0.4,0.3-0.7,0.4c-0.3,0-0.5,0.1-0.7,0.3c-0.1,0.2-0.2,0.4-0.1,0.6
			C82.3,58.3,82.4,58.5,82.7,58.6z"/>
		<path class="st0" d="M327.7,86.1c0,0.1,0.1,0.2,0.2,0.3c0,0,0,0,0,0c0.1,0.1,0.1,0.1,0.2,0.2c0.8,0.6,1.7,1.2,2.7,1.7
			c0.2,0.1,0.5,0.2,0.9,0.2c1.3,0,3-0.7,3.1-1.5c0.2-1,0.2-2.1-0.6-3c-0.1-0.1-0.2-0.1-0.3-0.2c-0.2-0.1-0.3-0.2-0.5-0.3
			c0,0,0,0,0,0c-0.1,0-0.1,0-0.1,0c-0.1,0-0.3,0-0.4,0.1c-0.6,0.4-1.3,0.7-2.2,0.7c-0.1,0-0.4,0-0.5,0c-0.7,0-1.3,0.2-2,0.7
			c-0.3,0.3-0.5,0.5-0.5,0.8C327.6,86,327.7,86,327.7,86.1C327.7,86.1,327.7,86.1,327.7,86.1z"/>
		<path class="st0" d="M303.4,75.8c0,0,0,0,0.2,0.1l0.1,0c0.8,0.5,1.2,0.7,1.5,0.7c0.3,0,0.3-0.2,0.3-0.8c0-0.1,0-0.3,0-0.4
			c0.4,1,1.3,1.2,2.2,1.4c0.3,0.1,0.6,0.1,0.9,0.2c0.1,0,0.2,0,0.2-0.1c0.1,0.1,0.2,0.1,0.3,0.1c0.1,0,0.3,0,0.4,0
			c0.4,0,0.7-0.2,0.9-0.7l0.4-0.6c0.2-0.1,0.3-0.2,0.5-0.3c0.2-0.2,0.5-0.3,0.8-0.3c0.2,0,0.4,0.1,0.6,0.3c0.1,0.2,0.3,0.3,0.5,0.3
			c0.3,0.1,0.6,0.2,0.7,0.6c0,0.1,0.1,0.1,0.1,0.1c0,0,0,0.1,0.1,0.1c0,0.1,0.1,0.1,0.2,0.1c0,0,0.1,0,0.1,0c0,0,0.1,0,0.1,0
			c0.1,0,0.3,0,0.5-0.1c0.1,0,0.3,0,0.4,0c0.3,0,0.6-0.2,0.6-0.5c0.1-0.5-0.3-0.7-0.6-0.8c-0.1,0-0.1-0.1-0.2-0.1l-0.9-0.6l-2.7-4.6
			c0.1-0.5-0.2-0.8-0.4-1.2c-0.1-0.1-0.2-0.3-0.2-0.4c0-0.1,0-0.1-0.1-0.2l0-0.5c0.6-0.7,0.6-1.5,0.7-2.3c0-0.4,0-0.7,0.1-1
			c0.1,0,0.2,0,0.3,0c0,0,0.1,0,0.1,0c0.4,0,0.8,0.1,1.2,0.2c1,0.3,2,0.4,3,0.6c0.4,0.1,0.8,0.1,1.2,0.2l0.7,0.5
			c0.2,0.1,0.5,0.2,0.8,0.2c0.4,0,0.7,0.1,1,0.4c0.1,0.1,0.3,0.3,0.5,0.3c0.1,0,0.2,0,0.2-0.1c0.2-0.2,0-0.4-0.1-0.6
			c-0.1-0.1-0.1-0.2-0.2-0.3l-2-1.3c0-0.1,0-0.2,0-0.3c0-0.3,0-0.7-0.3-1c0.1-0.3,0-0.5-0.1-0.6c-0.2-0.3-0.6-0.4-0.9-0.4
			c0,0-0.1,0-0.2,0c-0.5,0-0.8-0.2-1.2-0.4c-0.2-0.1-0.5-0.3-0.7-0.3c-0.4-0.1-0.7-0.3-0.7-0.7c0.1-0.4,0.4-0.6,0.8-0.7
			c3.6-1.3,3.7-1.6,3.8-5.4c0-0.9-0.1-1.4-0.3-1.7c-0.2-0.2-0.4-0.3-0.7-0.3c-0.2,0-0.5,0.1-0.9,0.2c-1.6,0.4-3.6,1-4.8,3
			c-0.2,0.2-0.2,0.4-0.2,0.7c0,0.1,0,0.1,0.1,0.1c0,0,0,0,0,0c-0.1,0-0.2,0.1-0.3,0.1c-0.1,0.1-0.3,0.2-0.4,0.3c0,0-0.1,0-0.1,0.1
			l0-0.1c0.1-0.1,0.1-0.2,0.2-0.2c0-0.1,0.1-0.2,0.1-0.3c0.1-0.2,0.3-0.5,0.3-0.7c0.8-1.5,0.8-3.3-0.2-4.5c-0.9-1.2-0.6-1.7,0.1-2.5
			c0.3-0.4,0.8-1,0.3-1.5c-0.2-0.2-0.5-0.3-0.8-0.3c-0.3,0-0.6,0.1-1,0.3c-1.4,0.9-2.3,1.9-2.9,3.1c-0.3,0.4-0.5,0.8-0.6,1.3
			c-0.1,0.4-0.2,0.7-0.4,1.1l-0.4,2.4c-1.4,1.6-1.3,2.3,0,3.7c0.7,0.7,0.8,1.5,0.4,2.6c-0.2,0.6-0.2,1.2-0.1,1.7l0,0.2
			c0.1,0.1,0.1,0.3,0.1,0.4c0.1,0.3,0.1,0.6,0.4,0.8c0.1,0.1,0.2,0.2,0.3,0.4l0.4,1.6l0.3,1.6c-0.6,0.3-0.7,0.8-0.9,1.4
			c-0.1,0.3-0.2,0.5-0.3,0.8c0,0.1-0.1,0.1-0.1,0.1c-0.1,0-0.1,0-0.2,0c-0.4,0-0.8-0.2-1.2-0.4c-0.4-0.2-0.7-0.4-1.2-0.4
			c-0.1,0-0.2,0-0.3,0c-0.8,0.4-1.3,0.9-1.3,1.6c0,0.6,0.2,1.3,0.4,1.9C303.4,74.1,303.6,75,303.4,75.8z M310.1,58.6
			c0.2-0.1,0.3-0.2,0.5-0.3c-0.1,0.2-0.1,0.4-0.1,0.6c-0.1,0-0.2,0.1-0.4,0.2c-0.1,0.1-0.3,0.2-0.5,0.2c0,0-0.1,0-0.1,0c0,0,0,0,0,0
			C309.5,59,309.8,58.8,310.1,58.6z M310.8,57.8c0,0.1-0.1,0.1-0.1,0.2c0,0,0-0.1,0-0.1C310.8,57.8,310.8,57.8,310.8,57.8z"/>
		<path class="st0" d="M388.3,83.2c-0.3,0-0.6,0-0.9,0.1c-0.7-0.1-1.3-0.2-2-0.2c-0.7,0-1.5-0.1-2.2-0.2c-0.1,0-0.2-0.1-0.4-0.1
			c-0.2,0-0.3-0.1-0.5-0.1c-0.4,0.5-0.6,0.9-0.5,1.2c0.1,0.3,0.5,0.5,1.2,0.7c0.4,0.1,0.8,0.1,1.2,0.1c0.8,0,1.5,0.1,2.2,0.6
			c1.1,0.8,2.5,1,3.7,1.3l0.5,0.1c0.4,0.1,0.7,0.1,1,0.1c0.7,0,1.4-0.2,1.8-0.7l1.7-0.2c0.1,0,0.2,0,0.3,0c0.3,0,0.6-0.1,0.8-0.2
			c0.2-0.2,0.4-0.4,0.3-0.5c0,0,0-0.1-0.1-0.1c0,0,0,0,0,0c-0.1-0.1-0.2-0.1-0.3-0.2c-0.2-0.1-0.3-0.1-0.4-0.3
			c-0.3-0.3-0.6-0.3-0.8-0.3c-0.1,0-0.2,0-0.4,0c-0.1,0-0.2,0-0.5,0l-0.5-0.3l-0.5-0.3c-0.3,0.1-0.6,0.1-0.9,0.1
			c-0.7,0-1.3-0.1-1.9-0.3C389.6,83.4,389,83.2,388.3,83.2z"/>
		<path class="st0" d="M289.6,85l-1.7-0.4c-0.5,0-0.9-0.2-1.3-0.4c-0.4-0.2-0.8-0.4-1.3-0.4c-0.2,0-0.4,0.1-0.6,0.2c0,0,0,0,0,0
			c0-0.1,0-0.2,0-0.3c-1.5-0.4-3.4-0.8-5.3-0.8c-0.4,0-0.7,0-1.1,0c-0.7,0.1-1.1,0.3-1.4,0.8c0,0.5-0.2,0.9-0.4,1.3
			c-0.2,0.6-0.5,1.2-0.3,1.9c0,0.7,0.6,1,1,1c0,0.1,0.1,0.2,0.2,0.2c0,0,0,0,0.1,0c0,0,0,0,0,0c0,0,0.1,0,0.1-0.1l0.1,0
			c0.9,0,1.6-0.3,2.4-0.7c0.7-0.3,1.3-0.6,2.1-0.7l0.8,0.6c0.1,0.1,0.2,0.2,0.3,0.2c0.1,0,0.2-0.1,0.3-0.2c0.4-0.3,0.9-0.5,1.4-0.5
			c0.2,0,0.3,0,0.4,0c0.9,0.2,1.8,0.3,2.7,0.3c0.9,0,1.8-0.1,2.6-0.4c0.1,0,0.1,0,0.2,0c-0.5,1.4,0.1,2.5,0.7,3.5l0.1,0.2
			c0.2,0.3,0.4,0.6,0.4,1l0.6,0.8c0.2,0.1,0.4,0.2,0.5,0.2c0.2,0,0.3-0.1,0.5-0.3c0.5-0.6,0.5-1.1,0.1-1.8c-0.7-1.2-0.9-1.8-0.7-2.3
			c0.2-0.5,0.8-0.9,1.8-1.3c0.1-0.1,0.3-0.1,0.4-0.2c0.1-0.1,0.2-0.1,0.3-0.2c0.3-0.2,0.5-0.4,0.5-0.6c0-0.2-0.2-0.4-0.5-0.5
			l-0.3-0.1c-1-0.3-2.1-0.7-3.2-0.7C291.1,84.3,290.4,84.5,289.6,85z"/>
		<path class="st0" d="M122.3,32c0.2,0.1,0.3,0.2,0.2,0.4c-0.4,0.4-0.6,0.7-0.5,1c0.1,0.4,0.7,0.6,1.1,0.7c0.1,0,0.3,0.1,0.4,0.1h0
			c0.5,0,0.9-0.2,1.4-0.4c0.6-0.4,0.9-0.8,1-1.3c0.4-0.7,0.4-1.4,0-2l-1.4-1.7c-0.3-0.7-0.5-1-0.9-1c-0.4,0-0.7,0.4-1.1,0.8
			l-0.1,0.1c-0.9,0.6-1.3,1-1.3,1.5c0,0.5,0.2,1,1,1.7C122.2,31.9,122.3,32,122.3,32z"/>
		<path class="st0" d="M297.8,30.5C297.8,30.6,297.8,30.6,297.8,30.5c0,0.1,0.1,0.2,0.1,0.3c0.1,0.2,0.2,0.4,0.2,0.7
			c0.1,0.5,0.3,0.9,0.7,1h0c0.1,0,0.2,0.1,0.3,0.1c0.2,0,0.4,0,0.6-0.1c0.1-0.1,0.2-0.3,0.3-0.4c0.4-0.5,0.8-0.9,0.6-1.6
			c-0.1-0.5,0.2-1,0.5-1.4c0.1-0.2,0.2-0.3,0.3-0.5c0.4-0.8,0.4-1.6,0-2.3c-0.4-0.7-1.1-1.2-2-1.4c-0.2,0.1-0.5,0.3-0.6,0.5
			c0,0.2,0,0.3,0.1,0.5l0.1,2c0,0.2,0,0.3,0.2,0.4c0.1,0.3,0.1,0.6,0,0.9c-0.1,0.2-0.3,0.3-0.6,0.4c-0.4,0.1-0.8,0.3-0.9,0.6
			c0,0,0,0.1,0,0.2c0,0,0,0.1,0,0.1C297.7,30.3,297.7,30.4,297.8,30.5z"/>
		<path class="st0" d="M269.9,81c0-0.5-0.3-0.9-1-1.4c-0.3-0.1-0.6-0.3-0.9-0.4c-1-0.4-2-0.9-3-0.9c-0.6,0-1.1,0.1-1.6,0.4
			c-0.1,0.1-0.2,0.2-0.2,0.3c-0.3,0.1-0.6,0.2-0.7,0.6c-0.1,0.3-0.2,0.6-0.4,0.8c-0.3,0.6-0.7,1.2-0.2,1.9c0.5,0.8,0.9,1.2,1.5,1.2
			c0.3,0,0.5-0.1,0.8-0.2c0.2-0.1,0.3-0.1,0.4-0.1c0.2,0,0.3,0.1,0.5,0.3c0.3,0.4,0.6,0.6,0.8,0.6c0.3,0,0.6-0.3,0.8-1l0.3-0.3
			c0.1,0,0.2,0,0.3,0c0.5,0,1-0.1,1.4-0.4C269.5,81.9,269.9,81.5,269.9,81z"/>
		<path class="st0" d="M293.1,97.4c-0.4,0-0.8,0.4-0.9,0.9c-0.6,1.1-0.4,1.9,0.4,2.5c1.5,2.3,4,3.3,6.2,4.2c0.2,0.1,0.3,0.1,0.5,0.1
			c0.7,0,1.5-0.5,2.2-0.9c0.4-0.3,0.8-0.5,1.2-0.7c1,0,1.8-0.1,2.4-1c0.2-0.8,0.3-1.6-0.1-2.4c-0.6-0.4-1.1-0.9-1.6-1.4
			c-0.7-0.7-1.4-1.4-2.4-1.7c-0.1,0-0.1-0.1-0.2-0.1c0,0-0.1,0-0.1,0c0,0,0,0,0,0c-0.3-0.4-0.8-0.7-1.2-0.7c-0.2,0-0.3,0-0.5,0.1
			c-0.7,0.1-1.3,0.3-2,0.5c-1.2,0.3-2.3,0.6-3.6,0.6C293.3,97.4,293.2,97.4,293.1,97.4z"/>
		<path class="st0" d="M361.5,119.8C361.5,119.7,361.5,119.7,361.5,119.8c0.1-0.2,0.1-0.4,0-0.6c0,0,0-0.1,0-0.1
			c0-0.2-0.1-0.3-0.2-0.5c0,0,0,0,0-0.1c0-0.1-0.1-0.2-0.1-0.3c-0.4-0.3-0.7-0.4-1-0.4c-0.4,0-0.7,0.3-1,0.8
			c-0.1,0.1-0.1,0.3-0.1,0.5c0,0.4,0,0.7-0.6,0.8c0,0,0,0,0,0l0,0c0,0,0,0,0,0l-0.1,0l0,0l0,0l0,0l0.1,0.1c0,0,0,0,0,0l0,0
			c0,0,0,0,0,0c0,0,0,0,0,0c0,0.1,0,0.2-0.1,0.2c-0.1,0.2-0.1,0.4-0.2,0.7c-0.1,0.4-0.2,0.7-0.5,1.1c-0.3,0.2-0.5,0.3-0.8,0.4
			c0,0,0,0,0,0l-0.1-0.2c-0.1-0.4-0.3-0.7-0.6-0.9c0,0,0,0,0,0c-0.1-0.1-0.3-0.2-0.4-0.2c0,0-0.1,0-0.1,0c-0.1,0-0.1,0-0.2,0l0,0
			c0,0-0.1,0-0.1,0c0,0,0,0,0,0.1l0,0l0,0.1c-0.4,0.2-0.5,0.5-0.6,0.8c0,0.1,0,0.2-0.1,0.3l0.6,1l0,0.3c0,0.4,0.1,0.9,0.4,1.2
			c0,0,0,0,0.1,0.1c0,0,0.1,0.1,0.1,0.1c0,0.1,0,0.2,0.1,0.3l0.3,0.1l0.3-0.1l0.5,0c0,0.1,0.1,0.1,0.2,0.2c0.1,0,0.2,0,0.3,0
			c0.1,0,0.2,0,0.2-0.1c0,0,0.1,0,0.1,0c0.1,0,0.1-0.1,0.2-0.1c0,0,0,0,0.1-0.1c0.1-0.1,0.1-0.1,0.2-0.2c0.2-0.4,0.4-0.9,0.3-1.3
			c0.2-0.3,0.4-0.6,0.6-0.9c0.5-0.7,1-1.4,1.5-2c0.1-0.1,0.1-0.2,0.2-0.3c0,0,0,0,0,0C361.4,120.1,361.5,119.9,361.5,119.8z"/>
		<path class="st0" d="M290.3,36.4c0.1,0.1,0.1,0.1,0.2,0.2c0,0,0.1,0,0.1,0.1c0.1,0.1,0.2,0.1,0.3,0.2c0,0,0.1,0,0.1,0
			c0.1,0,0.1,0,0.2,0c0.3,0,0.6-0.1,0.9-0.3c0.6-0.4,0.6-1,0.2-1.8c-0.1-0.2-0.3-0.3-0.4-0.5c-0.3-0.3-0.6-0.7-0.8-1
			c-0.3-0.7-0.6-1-1.1-1c-0.3,0-0.7,0.1-1.1,0.5c-0.2,0.5-0.4,1.1,0.1,1.7L290.3,36.4z"/>
		<path class="st0" d="M254.2,70.6c-0.4,0-0.8,0.2-1.1,0.4l-0.2,0.1c-0.8,0.5-1.6,1.1-2.1,2c-0.1,0.1-0.1,0.3-0.1,0.5l0.1,0.2
			l0.3,0.3c0,0,0,0,0,0c0,0,0.6-0.2,0.9-0.3c0.7-0.2,1.3-0.4,2-0.7c0.8-0.3,1.3-0.6,1.4-0.9c0.1-0.4-0.3-0.8-1-1.5
			C254.4,70.6,254.3,70.6,254.2,70.6z"/>
		<path class="st0" d="M190.7,135.5L190.7,135.5c0.5-0.3,0.9-0.3,1.4-0.4c0.7-0.1,1.3-0.1,1.7-0.8c0.1-0.2-0.1-0.6-0.3-0.8
			c-0.4-0.5-0.9-0.7-1.7-0.7c-0.1,0-0.2,0-0.3,0l-0.2,0c-0.5,0.1-1.3,0.1-1.4,1c-0.1,0.4,0.2,1,0.5,1.4
			C190.5,135.4,190.6,135.5,190.7,135.5z"/>
		<path class="st0" d="M313.2,146.4c0-0.1,0-0.1-0.1-0.2c-0.1-0.2-0.1-0.3-0.2-0.4c-0.4-0.1-0.7-0.3-1.1-0.4
			c-0.5-0.3-1.1-0.5-1.7-0.5c-0.1,0-0.2,0-0.4,0c-0.3,0.1-0.6,0.2-0.7,0.4c-0.1,0.2-0.1,0.4,0.1,0.7c0.4,0.7,1.1,1,1.8,1.3
			c0.3,0.1,0.5,0.2,0.8,0.3c0,0,0.1,0,0.1,0c0.3,0,0.9-0.4,1.2-0.9c0-0.1,0.1-0.1,0.1-0.2C313.1,146.5,313.2,146.4,313.2,146.4z"/>
		<path class="st0" d="M376.3,79.3c0.2,0.2,0.4,0.3,0.5,0.3c0.1,0,0.1,0,0.2,0c0.1,0,0.1,0,0.2,0c0.1,0,0.2,0,0.3,0l0,0
			c0.3,0,0.5-0.2,0.6-0.4c0.1-0.1,0.1-0.1,0.2-0.2c0.3-0.4,0.4-0.7,0.3-1c-0.1-0.4-0.4-0.7-1-1c-0.3-0.2-0.6-0.2-0.9-0.2
			c-0.6,0-1,0.4-1.2,1.1C375.5,78.6,375.7,79,376.3,79.3z"/>
		<path class="st0" d="M381.5,75.6l0.1,0.1c0,0,0.1,0.1,0.1,0.2c0.1,0.1,0.2,0.3,0.4,0.4c0,0,0,0,0,0c0.1,0,0.1,0,0.2,0
			c0,0,0,0,0.1,0c0,0.4,0.3,0.4,0.6,0.5c0.1,0.3,0.4,0.4,0.7,0.5c0.3,0.1,0.5,0.2,0.7,0.5c0.1,0.2,0.2,0.4,0.4,0.5
			c0.5,0.9,1.3,1.2,2.2,1.4c0.3,0.1,0.6,0.2,0.9,0.3c0.5,0.2,0.9,0.3,1.4,0.3c0.8,0,1.5-0.4,2.2-1.3c0-0.6-0.5-1-1-1.4
			c-0.1-0.1-0.2-0.1-0.3-0.1c-0.2,0-0.3,0.1-0.3,0.3c-0.1,0.1-0.3,0.2-0.4,0.2c-0.2,0-0.3-0.3-0.3-0.5c-0.1-0.6-0.4-1-0.7-1.5
			c-0.1-0.1-0.2-0.2-0.3-0.4c-0.1-0.1-0.2-0.2-0.4-0.2c0,0-0.1,0-0.1,0l-0.2-0.3l-0.4-0.5l-0.6,0l-1,0c-0.5-0.3-1-0.3-1.5-0.4
			c-0.5,0-0.9-0.1-1.3-0.3c-0.3-0.2-0.6-0.3-0.8-0.3c-0.4,0-0.7,0.3-1,0.9C380.8,75,381.2,75.3,381.5,75.6z"/>
		<path class="st0" d="M167.1,121.7c-0.5-0.6-1.1-0.8-1.7-0.8c-0.3,0-0.7,0.1-1.1,0.3c0.1,0.3,0.2,0.5,0.4,0.7
			c0.3,0.4,0.6,0.8,0.3,1.4c-0.1,0.2-0.1,0.3,0,0.4c0.2,0.3,0.8,0.3,1.2,0.3l0.1,0c0.3,0,0.4-0.1,0.6-0.2c0,0,0,0,0,0
			c0,0,0.1,0,0.1-0.1c0.1-0.2,0.1-0.4,0-0.6c-0.1-0.3,0-0.6,0-0.8C167.1,122.2,167.2,122,167.1,121.7z"/>
		<path class="st0" d="M318.7,135.3c-0.1-0.1-0.2-0.2-0.4-0.2c-0.2-0.2-0.5-0.4-0.8-0.4c-0.2,0-0.4,0.1-0.6,0.3
			c-0.4,0.4-0.8,0.9-0.6,1.6c0.2,0.6,0.6,1,1.2,1c0,0,0.1,0,0.1,0c0.5,0,0.7-0.4,0.8-0.7c0.1-0.2,0.2-0.4,0.3-0.6
			c0.2-0.2,0.3-0.4,0.3-0.5C319,135.5,318.9,135.4,318.7,135.3z"/>
		<path class="st0" d="M100.3,41.5c0,0,0.1,0,0.1,0c0.1,0,0.1-0.1,0.2-0.1c0,0,0.1,0,0.1,0c0.2-0.1,0.3-0.1,0.4-0.2c0,0,0,0,0,0
			c0.1-0.1,0.2-0.2,0.3-0.3c0,0,0-0.1,0.1-0.1c0.1-0.1,0.1-0.2,0.2-0.4c0,0,0-0.1,0-0.1c0-0.1,0-0.1,0-0.2c0-0.1,0-0.2-0.1-0.3
			c0,0,0,0,0,0c-0.1-0.5-0.6-0.9-1.5-1.2c-0.8,0.4-0.8,1.1-0.8,1.7C99.4,40.6,99.5,41.5,100.3,41.5z"/>
		<path class="st0" d="M325.5,70c0.3,0.2,0.6,0.4,0.8,0.7c0.1,0.1,0.2,0.1,0.3,0.1c0.1,0,0.2,0,0.3-0.1c0.3-0.3,0.1-0.5-0.1-0.7
			c-0.7-1-1.7-1.9-2.7-2.7l-0.6,0c0,0,0,0-0.1,0c0,0,0,0,0,0l0,0C323.6,68.6,324.6,69.3,325.5,70z"/>
		<path class="st0" d="M320.8,145.5c-0.2,0-0.3,0-0.4,0c-0.7,0-1.1,0.2-1.4,0.7c-0.1,0.2-0.1,0.3-0.1,0.4c0,0,0.1,0.1,0.1,0.1
			c0,0,0,0,0,0c0.1,0.1,0.2,0.2,0.4,0.2l0.1,0c0.3,0.3,0.8,0.5,1.4,0.6c0,0,0,0,0,0c0,0,0,0,0,0c0.8-0.1,1.2-0.6,1.2-1.1
			C322,145.9,321.4,145.6,320.8,145.5z"/>
		<path class="st0" d="M129.7,84.6c0.1,0,0.1,0,0.2,0c0.6-0.1,1.6-0.4,1.6-1.2c0-0.7-0.6-0.7-1-0.7c-0.2,0-0.3,0-0.4,0
			c-0.1,0-0.3,0-0.4,0c-0.3,0-0.6,0.1-0.7,0.2c-0.1,0.1-0.2,0.4-0.1,0.7C129,84.2,129.3,84.6,129.7,84.6z"/>
		<path class="st0" d="M242.8,137.9C242.8,137.9,242.8,137.9,242.8,137.9c0.1,0.1,0.1,0.1,0.1,0.1c0.3,0.1,0.5,0.2,0.8,0.4
			c0.4,0.2,0.8,0.4,1.3,0.4c0.2,0,0.5-0.1,0.7-0.2c0-0.1,0-0.2,0-0.3c0,0,0-0.1,0-0.1c0-0.2,0-0.3-0.1-0.4c0-0.1-0.1-0.2-0.1-0.2
			c0,0,0-0.1,0-0.1c-0.3-0.4-0.9-0.4-1.4-0.4c-0.3,0-0.7,0-1-0.1l-0.1,0.2C242.8,137.3,242.6,137.6,242.8,137.9
			C242.7,137.8,242.7,137.8,242.8,137.9z"/>
		<path class="st0" d="M268.9,119.2c0.6,0.2,0.9,0.3,1.2,0.3c0.2,0,0.4-0.1,0.5-0.3c0,0,0,0,0,0c0.1-0.3,0.2-0.7,0.2-1.3
			c-0.3-0.3-0.7-0.4-1.1-0.4c-0.4,0-0.7,0.1-1.1,0.4c-0.4,0.3-0.2,0.7,0,1C268.8,119,268.8,119.1,268.9,119.2z"/>
		<path class="st0" d="M224.6,92.7c-0.1,0.2-0.3,0.3-0.5,0.5c-0.5,0.4-0.9,0.8-0.8,1.5c0,0.3,0.2,0.5,0.4,0.6
			c0.1,0.1,0.3,0.2,0.3,0.4c0,0,0.1,0,0.1,0c0,0,0.1,0,0.1,0c0.2,0.5,0,1-0.2,1.5c-0.2,0.5-0.4,1-0.2,1.5c0,0.1,0,0.3,0,0.4
			c0,0.5,0,0.9,0.3,1.4c0,0.2,0,0.5,0.3,0.6c0.3,0.7,0.7,1.1,1.4,1.1c0.3,0,0.6-0.1,0.9-0.2c0.2-0.1,0.3-0.1,0.5-0.2
			c0.7-0.3,1.3-0.5,2.1-0.5c0.2,0,0.4,0,0.5,0c0,0.1,0.1,0.2,0.1,0.3c0.1,0.2,0.2,0.4,0.2,0.5c-0.6,1.5,0.2,2.7,1,3.7
			c0.2,0.3,0.3,0.6,0.3,0.9c0,0.2,0,0.3,0.1,0.5c0.4,1.7-0.2,3.2-0.7,4.7c-0.4,1.1-0.7,2.2-0.8,3.4c0,0,0,0,0,0c0,0.2,0,0.4,0,0.5
			c0,0.2-0.2,0.4-0.4,0.5c-1,0.9-1,2.1-0.9,3.1c0.1,0.9,0.5,1.5,1.3,1.8c0.1,0.1,0.3,0.2,0.4,0.2c0.4,0.2,0.7,0.4,0.9,0.8
			c0.2,0.5,0.7,0.7,1.2,0.7c0.6,0,1.2-0.4,1.6-0.9c0.5,0,1.1-0.1,1.6-0.2c0.6-0.1,1.2-0.2,1.8-0.2c0.8,0,1.4,0.2,2,0.6
			c0.1,0.1,0.2,0.1,0.3,0.1c0.2,0,0.5-0.2,0.6-0.4c0.1-0.3-0.1-0.5-0.4-0.7l-0.1-0.1c0.1-0.3-0.1-0.5-0.2-0.7
			c-0.1-0.1-0.2-0.2-0.2-0.3c0-0.7-0.2-1.5-0.3-2.2c-0.3-1.1-0.5-2.2-0.2-3.3c0,0,0,0,0,0c0.1-0.2,0.1-0.3,0.2-0.5
			c0.6-1.2,1.2-2.4,0.3-3.7l0-0.3c0-0.5,0-1-0.3-1.5c0.1-0.5,0.1-1.1,0.1-1.6c0-1.1,0.1-2.3,0.6-3.3c0.1-0.2,0.1-0.4,0-0.6
			c0,0,0-0.1,0-0.1c0,0,0,0,0,0c0,0,0,0,0,0l-0.1,0l0-3.3c0.1-0.1,0.2-0.2,0.2-0.4c0-0.1,0-0.2,0-0.3c0-0.2,0-0.5-0.3-0.5
			c0,0,0,0,0,0c0-0.4-0.2-0.6-0.3-0.9c-0.4-0.5-0.5-0.9-0.5-1.3c0.1-0.4,0.4-0.8,0.9-1.1c0.3-0.2,0.5-0.4,0.7-0.7
			c0.1-0.1,0.1-0.2,0.2-0.2c0,0,0,0,0,0c0.2-0.2,0.5-0.3,0.8-0.4c0.2-0.1,0.5-0.2,0.6-0.3c0.1,0,0.3,0,0.4,0l0.8,0
			c0.6,0,1.2,0.1,1.7,0.4l0.1,2.2c0.2,0.6-0.2,1.1-0.6,1.6c-0.4,0.4-0.7,0.9-0.7,1.6c-0.4,0.7-0.5,1.3-0.4,1.8c0,0,0,0.1,0,0.1
			c0,0.2,0.1,0.4,0.2,0.5c0,0,0.1,0.1,0.1,0.1c0,0.1,0.1,0.2,0.1,0.2c1.7,1.8,3.5,3.3,5.4,4.5c0.1,0.2,0.3,0.2,0.5,0.3
			c0.1,0,0.2,0,0.3,0.1c0.3,0.1,0.4,0.2,0.4,0.4c0,0.2,0,0.4-0.2,0.6c-0.4,0.4-0.4,0.9-0.3,1.4c-0.8,0.9-0.9,2-0.5,3.1
			c0,0.1,0.1,0.2,0.1,0.3c0.9,1.7,2.6,2,4,2c0.3,0.2,0.6,0.2,0.8,0.2c0.6,0,1.1-0.4,1.5-0.8c0.2-0.5,0-0.9-0.2-1.2
			c-0.1,0-0.2,0-0.2-0.1c-0.1-0.3-0.1-0.6,0-0.9c0.1-0.1,0.2-0.2,0.3-0.4c0-0.1,0-0.1,0.1-0.1c0.1,0,0.3-0.1,0.4-0.1
			c0.2,0,0.4-0.1,0.5-0.2l0,0h0h0l0.1,0c0.2,0,0.3,0,0.5-0.1c0.3-0.1,0.6-0.2,0.9-0.3c0,0,0.1,0,0.1-0.1c0,0,0,0,0,0c0,0,0,0,0,0
			c0.1,0.1,0.2,0.1,0.3,0.1c0.1,0,0.3,0,0.4-0.1c0.2,0.3,0.4,0.4,0.7,0.6c0.2,0.1,0.3,0.2,0.5,0.2c0.1,0,0.2,0.1,0.3,0.1
			c0.1,0,0.1,0.1,0.2,0.1c-0.1,0-0.2,0-0.3,0c-0.8,0-1.4,0.5-2,1c-0.2,0.1-0.3,0.3-0.5,0.4c-0.1,0-0.2,0.1-0.3,0.1
			c-0.1,0.1-0.2,0.1-0.2,0.2l-0.3,0.3l-0.3,0.3c0.4,0.9,0.5,1.8,0.2,2.8c-0.1,0.2-0.3,0.4-0.6,0.6c-0.3,1.7,0,2.1,1.6,2.5
			c0.1,0,0.2,0,0.3,0c0.3,0,0.7,0.1,0.8,0.5l0.1,0.2c0.1,0.2,0.1,0.3,0.2,0.5c0,0.1,0.1,0.2,0.1,0.3c0,0.1,0,0.1,0,0.2
			c0.1,0.2,0.1,0.3,0.2,0.4c0,0.1,0.1,0.1,0.2,0.2c0.1,0.1,0.2,0.2,0.3,0.2c0.1,0.1,0.2,0.1,0.3,0.1c0.2,0.1,0.3,0.1,0.5,0.1
			c0,0,0.1,0,0.1,0c0.1,0,0.2,0,0.2,0l0.2,0c1.2,0,1.7-0.6,1.8-1.9c0-0.3,0.1-0.5,0.2-0.7c0-0.1,0.1-0.2,0.1-0.3l0.2,0l0.1-0.1
			c0.1,0.1,0.3,0.1,0.4,0.1c0.4,0,0.7-0.3,1-0.5c0.6-0.2,1.5-0.4,1.3-1.4c-0.1-0.5-0.4-0.9-0.8-1.1c0,0,0,0,0,0
			c-0.2-0.1-0.4-0.2-0.7-0.2c-0.1,0-0.1,0-0.2,0c-0.7-0.4-0.9-0.9-0.4-1.8c0-0.1,0.1-0.2,0.1-0.3c0.2-0.3,0.3-0.6,0.6-0.6
			c0.2,0,0.3,0.1,0.6,0.2c0.1,0,0.2,0.1,0.3,0.1c0.1,0,0.1,0,0.2-0.1l0,0c0.1-0.1,0.3-0.1,0.3-0.3c0,0,0-0.1,0-0.2c0,0,0,0,0-0.1
			c0-0.1,0-0.2,0-0.3c0,0,0-0.1,0-0.1c0,0,0-0.1,0-0.1c-0.3-0.4-0.5-1-0.6-1.6c-0.3-1.1-0.5-2.3-2.3-2.4c0,0-0.1,0-0.1,0
			c0,0,0,0-0.1,0c-0.1-0.1-0.1-0.3-0.2-0.5c0-0.2,0-0.3-0.1-0.4c0.1-0.1,0.2-0.2,0.3-0.2c0.1,0,0.2,0.1,0.3,0.2
			c0.5,0.4,0.9,0.5,1.3,0.5c0.4,0,0.8-0.2,1.1-0.6c0.3-0.7,0.4-1.2,0.4-1.8c-0.1-0.5-0.2-1.2-0.6-1.2c0,0-0.1,0-0.1,0
			c-0.3,0.1-0.7,0.1-1,0.1c-0.5,0-1,0-1.4,0.4c0,0,0,0,0,0.1c-0.1,0.1-0.2,0.1-0.2,0.2l-1-0.2c-0.1-0.1-0.2-0.1-0.3-0.1
			c-0.2,0-0.3,0.1-0.5,0.2c-0.1,0.1-0.2,0.1-0.3,0.1c0,0-0.1,0-0.2-0.2c0-0.1-0.1-0.3-0.2-0.4c0,0,0,0,0,0c-0.4-0.8-1-1.4-1.7-2
			c-1.1-0.9-2.1-1.9-1.9-3.7c0.2-0.2,0.5-0.3,0.7-0.5c0.4-0.2,0.8-0.5,1-0.8c0,0,0,0,0,0c0.1-0.1,0.1-0.2,0.1-0.3c0,0,0,0,0-0.1
			c0-0.1,0.1-0.2,0.1-0.4c0.1-0.5-0.3-0.6-0.6-0.7l-1-0.7c0-0.1,0-0.3,0-0.4c0,0,0,0,0-0.1c-0.1-0.7-0.5-1.2-0.9-1.7
			c-0.1-0.2-0.3-0.3-0.4-0.5c-0.1-0.1-0.3-0.2-0.4-0.3c0,0,0,0-0.1,0c-0.4-0.4-0.7-0.8-0.9-1.2c-0.2-0.3-0.4-0.7-0.7-1l-1.9-2.7
			c-0.1-0.1-0.2-0.2-0.3-0.3c-0.2-0.1-0.4-0.3-0.6-0.5c-0.1-0.1-0.1-0.2-0.2-0.3c0.9-0.2,1.4-0.9,1.8-1.6c0.3-0.4,0.6-0.9,1-1.2
			l0.3-0.1c0.1,0,0.2,0,0.3,0c0.7,0,1.3-0.2,1.8-0.6c0.1-0.1,0.2-0.3,0.4-0.4c0,0,0,0,0.1-0.1c0.4-0.4,0.9-0.7,1.3-0.9
			c0.4-0.2,0.8-0.5,1.2-0.8c0.6,0,0.8-0.4,1-0.9c0-0.1,0-0.2,0-0.3c0.6-0.5,1.2-1.1,1.4-2c0.3-0.2,0.6-0.5,0.7-0.8
			c0.1,0,0.2,0,0.2,0c0.3-0.1,0.6-0.3,0.9-0.4c0.2-0.1,0.4-0.1,0.5-0.2l0.3,0l0.3,0.1c0.4,0.1,0.8,0.3,1.2,0.7
			c0.3,0.3,0.7,0.5,1.1,0.5c0.1,0,0.1,0,0.2,0c0,0,0.1,0,0.1,0c0.1,0,0.3-0.1,0.4-0.2c0.1,0,0.2-0.1,0.2-0.1c0.1,0,0.1-0.1,0.2-0.1
			c0-0.3,0.1-0.7,0.2-1c0.2-0.4,0.3-0.9,0.2-1.3c0.2-1.2-0.2-1.8-1.4-2.3c-0.5-0.2-1-0.3-1.6-0.3c-0.9,0-1.7,0.3-2.6,0.5
			c-0.6,0.2-1.2,0.4-1.9,0.5l-0.8,0.9c-0.1,0-0.1,0-0.2,0.1l-0.9,0c-0.5,0-1,0-1.6,0c-0.3,0-0.5,0-0.8,0l-0.3,0
			c-0.2,0-0.4,0-0.5,0.2c-0.1,0.1-0.2,0.3-0.1,0.5l0,0.2l0,0.2c-0.8,0.6-1.6,0.9-2.3,0.9c-0.8,0-1.6-0.4-2.4-1.3l-0.3,0
			c-0.2-0.1-0.3-0.1-0.4-0.1c-0.3,0-0.5,0.2-0.5,0.5l-0.5,0.3l-0.4,0c-0.9,0.4-1.4,1.1-1.5,2.1c0,0.1,0,0.2,0.1,0.3
			c-0.2,0.2-0.3,0.3-0.5,0.5c-0.4,0.4-0.9,0.7-0.9,1.3c-0.1,0.1-0.2,0.2-0.2,0.3c0,0.1-0.1,0.2-0.1,0.3c-0.2,0-0.5,0.1-0.7,0.1
			c-0.3,0-0.5,0-0.8-0.1c-0.1-0.1-0.1-0.2-0.3-0.3c-0.1,0-0.1,0-0.2,0c0,0,0,0,0,0l-0.2-0.1c-0.8-0.3-1.6-0.5-1.8-1.5
			c-0.1-0.2-0.2-0.3-0.3-0.5c-0.2-0.3-0.4-0.5-0.4-0.9c-0.1-0.1-0.1-0.2-0.1-0.3c0-0.1,0-0.3-0.1-0.4c-0.1,0-0.1-0.1-0.2-0.1
			c0,0-0.1,0-0.1,0l0.1-0.1c0.1-0.3,0-0.5-0.2-0.7c-0.3-0.3-0.7-0.4-1.1-0.6c-0.6-0.2-1.2-0.4-1.5-1.2c-0.9-3-1.4-6.4,1.4-9.4
			c0.6-0.8,1.4-0.8,2-0.8c0.3,0,0.6,0,0.9,0.1c0.3,0,0.5,0.1,0.9,0.1c0.1,0,0.2,0,0.3-0.1c0,0,0.1,0,0.1,0c0,0,0,0,0,0
			c0.2,0.5,0.7,0.6,1.1,0.6c0.1,0,0.2,0,0.3,0c0.1,0,0.2-0.1,0.2-0.2c0.2,0.2,0.4,0.3,0.6,0.3c0.3,0,0.6-0.2,0.8-0.4
			c0.2-0.1,0.4-0.3,0.6-0.4c0-0.1,0-0.1,0.1-0.2c0.2,0.1,0.4,0.1,0.6,0.2c0.4,0.2,0.9,0.3,1.4,0.3c0.1,0,0.2,0,0.3,0c0,0,0,0,0,0
			c0.3,0,0.5-0.1,0.7-0.3l0.4,0.1c0.2,0,0.5,0.1,0.7,0.1c0.2,0,0.3,0,0.5,0c0.1,0,0.3-0.1,0.4-0.1c0.4,0.2,0.8,0.3,1.1,0.3
			c0.2,0,0.4,0,0.6-0.1c0,0,0.1,0,0.1,0.1c0,0,0.1,0.1,0.2,0.1c0.1,0,0.1,0.1,0.1,0.1c0.2,0.1,0.4,0.1,0.6,0.1c0.3,0,0.7-0.1,1-0.1
			l0.3,0c0.2-0.1,0.3-0.2,0.4-0.3l3.1-0.2l2.3,0c0,0.1,0.1,0.1,0.2,0.2c0.2,0,0.5,0.1,0.7,0.1c0.1,0,0.7,0,0.8,0c0.3,0,0.6,0,1,0.1
			c0.3,0.1,0.5,0.4,0.8,0.7c0.3,0.4,0.7,0.7,1.2,0.7c0.1,0,0.3,0,0.4-0.1l0.3,0c0.5,0,1,0,1.5,0.1c0.6,0,1.2,0.1,1.7,0.1
			c1.2,0,2.2-0.2,3.1-0.5c0.2,0,0.4,0,0.6,0l0.4,0c0.3,0,0.7,0,1.1-0.2c0.1,0,0.2,0,0.3,0c0.1,0,0.2,0,0.3-0.1c0,0,0.1,0,0.1,0
			c0.1,0,0.2-0.1,0.3-0.1c0,0,0.1,0,0.1-0.1c0.1-0.1,0.2-0.1,0.2-0.2c1.4-0.5,2-1.6,2.6-2.7l0.1-0.2c0.3-0.6,0.7-1.2,1.3-1.5
			c1.8-1,2.5-2.7,3.1-4.4l0.2-0.5c0.6-0.1,1-0.4,1.2-0.7c0.2-0.4,0-1-0.2-1.5c-0.1-0.2-0.2-0.4-0.2-0.6c-0.2-0.1-0.3-0.2-0.5-0.3
			c-0.5-0.4-1-0.7-1.6-0.7c-0.2,0-0.4,0-0.6,0.1l-0.4,0.5c-0.2,0.3-0.5,0.5-0.7,0.8c-0.6,0.8-1.2,1.6-2.4,1.7
			c-0.2,0-0.4,0.3-0.5,0.5c-0.4,0.7-1,1.2-1.6,1.7c-0.2,0.2-0.5,0.4-0.7,0.6c-1.3,1.2-2.5,1.9-3.8,2.2c0,0-0.1,0-0.1,0
			c-0.4,0.1-0.8,0.1-1.2,0.1c0,0,0,0,0,0c-0.3,0-0.6,0-0.9-0.1c0,0,0,0-0.1,0c-0.9-0.1-2-0.5-3.1-1c-0.3-0.3-0.6-0.4-1-0.4
			c-0.2,0-0.5,0.1-0.8,0.2c-0.2,0.1-0.3,0.3-0.4,0.4l-1.9,0.9l-3.3-0.7c-0.4-0.4-0.8-0.4-1.2-0.4c-0.2,0-0.4,0-0.6,0l-0.1,0
			c-0.2-0.1-0.4-0.2-0.6-0.2c-0.3,0-0.5-0.1-0.7-0.3l0-0.1l0-0.1l0,0l0-0.1l-0.1,0.1l-0.2,0l-0.2,0c0,0,0-0.1-0.1-0.2
			c-0.6-0.4-1.3-0.7-2-0.8c-0.3,0-0.6,0.1-0.9,0.1c-0.4,0.1-0.9,0.1-1.3,0.1c-0.7,0-1.3-0.2-1.8-0.6c-0.2-0.1-0.3-0.3-0.4-0.5
			c0,0,0,0,0,0c0,0,0,0,0,0l-0.1,0c0-0.1,0-0.1,0-0.2l-0.7,0l-0.7,0c-0.1-0.1-0.1-0.1-0.2-0.1c0,0-0.1,0-0.1,0
			c-0.8-0.6-1.8-0.6-2.7-0.6l-0.7,0c-0.2,0-0.5,0-0.7,0c-0.5,0.1-0.5,0.4-0.6,0.8c0,0.1,0,0.2-0.1,0.3c0,0-0.1,1.2-0.1,1.2l-0.2,0.4
			l-0.7,0.6c0,0-0.1,0-0.1,0c-0.4,0-0.5,0.3-0.6,0.6c-0.3,0.6-0.6,1.1-1.2,1.1c-0.1,0-0.1,0-0.2,0c-0.5-0.1-0.5-0.6-0.5-1.1
			c0-0.2,0-0.3,0-0.5c-0.3-0.2-0.6-0.4-0.9-0.4c-0.3,0-0.5,0.1-0.8,0.3c0,0.1,0,0.1-0.1,0.1c0,0,0,0-0.1,0c-0.5,0.2-0.5,0.6-0.5,1.1
			l0.2,0.3l-0.2,0.2c-0.4,0.3-0.8,0.5-1.1,1c-0.2,0-0.3,0.2-0.4,0.3c0,0.1-0.1,0.1-0.1,0.2c0.1,0.5-0.2,0.8-0.5,1.2
			c-0.2,0.2-0.4,0.4-0.5,0.7c-0.1,0.2-0.2,0.4-0.4,0.5c-0.6,0.9-1.2,1.8-0.7,2.7c0.1,0.1,0.1,0.2,0.2,0.3c0,0,0.1,0.1,0.1,0.1
			c0.1,0.1,0.2,0.3,0.4,0.4c-0.1,0.1-0.2,0.1-0.3,0.1c-0.2,0-0.3,0-0.5-0.1c-0.2,0-0.3-0.1-0.5-0.1c-0.3,0-0.5,0.2-0.7,0.5
			c-0.3,0.7-0.1,1.1,0.2,1.5c0.1,0.1,0.2,0.3,0.2,0.4c0.3,1.9,0.5,3.8-1.2,5.3c-0.2,0.1-0.2,0.3-0.2,0.5c0,0.2-0.1,0.4-0.2,0.5
			l0,0.7l-0.7,1.3c-1.7,1.7-2.1,4.3-1.1,6.4l0,0.7l0.1,0.8c-1.6,1-1.7,2.6-1.7,4c-0.1,0.1-0.2,0.3-0.1,0.4c-0.4,1-1.4,1.6-2.3,2
			C224.8,92.7,224.7,92.7,224.6,92.7z M262,77.7C262,77.7,261.9,77.8,262,77.7c-0.1,0-0.2,0-0.3-0.1C261.8,77.7,261.9,77.7,262,77.7
			C262,77.7,262,77.7,262,77.7z M267.7,75.5c0-0.1,0.1-0.1,0.1-0.2l0,0C267.8,75.4,267.8,75.4,267.7,75.5
			C267.7,75.4,267.7,75.5,267.7,75.5z"/>
		<path class="st0" d="M328.5,80.2c0.2,0,0.4,0,0.7,0c0.5,0,0.9-0.1,1.3-0.3l0.1-0.1c0,0,0,0,0.1,0c0,0,0,0,0,0l0,0l-0.2-0.2
			c-0.2-0.8-0.7-0.9-1.2-0.9c-0.1,0-0.3,0-0.4,0c-0.1,0-0.3,0-0.4,0c0,0,0,0,0,0c-0.5,0-0.7,0.2-0.7,0.7
			C327.7,80.1,328.1,80.2,328.5,80.2z"/>
		<path class="st0" d="M242.3,136.7c0.1,0,0.3,0,0.5-0.1l0.7-0.7c0.1-0.4,0-0.8-0.2-1c-0.1-0.2-0.4-0.3-0.8-0.3c0,0,0,0,0,0
			c-0.3,0-0.6,0.1-0.8,0.3c0,0,0,0,0,0c0,0-0.1,0.1-0.1,0.1c-0.1,0.2-0.2,0.4-0.2,0.7C241.4,136.3,241.8,136.7,242.3,136.7z"/>
		<path class="st0" d="M286.3,43.3C286.3,43.3,286.3,43.3,286.3,43.3c0.1,0.1,0.1,0.1,0.1,0.1c0.1,0.1,0.3,0.1,0.5,0.1
			c0,0,0.1,0,0.1,0c0.8-0.1,1-0.7,1-1.3c0-0.5-0.3-0.8-1-0.8c-0.3,0-0.5,0.1-0.6,0.3c-0.1,0.2-0.1,0.4,0,0.7c0,0.2,0.1,0.4,0,0.6
			C286.2,43,286.2,43.2,286.3,43.3z"/>
		<path class="st0" d="M329.7,143c-0.1-0.3-0.3-0.6-0.6-0.7c-0.4-0.4-0.8-0.6-1.3-0.7c-0.1,0-0.3,0-0.4,0c-0.4,0-0.6,0.1-0.8,0.3
			c-0.3,0.3-0.2,0.8-0.2,1.2c0,0.2,0,0.4,0,0.5c0.2,1.1,0.6,1.6,1.1,1.6c0.3,0,0.7-0.2,1.2-0.5l0.1,0c0.2,0,0.4,0,0.5-0.4l0.4-0.3
			c0.3-0.2,0.2-0.5,0.1-0.7C329.8,143.2,329.8,143.1,329.7,143z"/>
		<path class="st0" d="M306.6,139.3c-0.1,0-0.2,0-0.3,0c-0.1,0-0.3,0-0.4,0c-0.3,0-0.5,0.1-0.6,0.4c0.2,0.2,0,0.5-0.2,0.7
			c-0.1,0.2-0.2,0.4-0.2,0.5c0,0.1,0.1,0.2,0.2,0.3c0.2,0.1,0.4,0.2,0.7,0.2c0.2,0,0.4,0,0.6-0.1c0.6-0.3,0.5-0.8,0.3-1.3
			C306.7,139.7,306.7,139.5,306.6,139.3z"/>
		<path class="st0" d="M182.3,134.7c-0.1,0-0.3,0.1-0.5,0.2c-0.5,0.3-0.7,0.6-0.8,0.9c0,0.3,0.1,0.6,0.4,0.9c0.1,0,0.2,0,0.3,0.1
			c0,0,0.1,0,0.1,0c0.1,0,0.2,0.1,0.3,0.1c0.3,0,0.6-0.1,0.7-0.4c0-0.1,0.1-0.1,0.1-0.2c0,0,0,0,0-0.1c0-0.1,0.1-0.3,0.1-0.4
			c0,0,0,0,0,0c0,0,0,0,0,0C182.9,135.1,182.7,134.7,182.3,134.7z"/>
		<path class="st0" d="M129.8,41.3c0,0,0.1,0,0.1,0c0.6-0.1,0.9-0.6,1.1-1.1c-0.2-0.4-0.4-0.8-0.8-0.8c0,0-0.1,0-0.2,0
			c-0.5,0.2-1,0.6-1.1,1.2c0,0.2,0.1,0.4,0.2,0.5C129.3,41.2,129.5,41.3,129.8,41.3z"/>
		<path class="st0" d="M239,128.9c-0.1,0.2,0.1,0.4,0.4,0.8c0.1,0.1,0.2,0.2,0.3,0.3c0.2,0.2,0.4,0.4,0.6,0.4c0.1,0,0.3-0.1,0.4-0.2
			l0.1-1.6c0.9-1.7,0.9-2.3-0.4-5.9c-1,0.3-1.1,1.1-1.2,1.9c-0.1,1.5,0,2.8,0.4,3.9C239.3,128.6,239,128.7,239,128.9z"/>
		<path class="st0" d="M338.1,105.3c0.3,0,0.5,0,0.6-0.1c0.2-0.2,0.2-0.6,0.1-1.7c0.5-0.6,0.7-1.1,0.5-1.6c-0.2-0.5-0.6-0.8-1-1.2
			l-0.3-0.2c-0.1-0.1-0.3-0.2-0.4-0.4c-0.4-0.3-0.7-0.6-0.9-1.1c-1-2.4-2.1-3.2-4.7-3.2h-0.2c-0.9,0-1.9,0-2.7-0.4l-1.3-0.3
			c-0.2-0.3-0.5-0.3-0.7-0.4c-0.2,0-0.5-0.1-0.6-0.2c0-0.1,0-0.2,0-0.3c-0.3-0.2-0.7-0.3-1.1-0.3c-0.4,0-0.7,0.2-1,0.6l-0.7,0.9
			c-0.2,0.1-0.3,0.2-0.5,0.3c-0.2,0.1-0.4,0.3-0.6,0.3c-0.1,0-0.2,0-0.3-0.1c-1-0.9-2.2-1.1-3.2-1.1c-0.3,0-0.7,0-1,0
			c-0.3,0-0.7,0-1,0c-0.2,0-0.4,0-0.6,0c-0.4,0-0.8,0-1.2,0c-1.4,0-3,0.3-3.9,2.3c-0.1,0.2-0.3,0.3-0.5,0.4
			c-0.1,0.1-0.2,0.1-0.3,0.2l-3,1c-0.8,0.1-1.3,0.2-1.4,0.5c-0.1,0.3,0,0.7,0.4,1.2c0.2,0,0.5,0.1,0.7,0.2c0.3,0.1,0.5,0.3,0.8,0.3
			c0.4,0,0.6-0.3,0.7-1.1c0,0,0.3-0.1,0.8-0.1c0.2,0,0.3,0,0.4,0c0.4,0.1,0.4,0.3,0.4,0.7c0,0.1,0,0.2,0,0.2c0,0.3,0,0.7,0,1
			c0,0.7-0.1,1.4,0.2,2.1c0,0.3,0,0.6,0.1,0.8c0.1,0.1,0.2,0.1,0.3,0.1c0.1,0,0.2,0,0.4-0.1c0.2-0.1,0.5-0.1,0.7-0.1
			c0.2,0,0.4,0,0.7,0.1c0.1,0,0.1,0,0.2,0c0.7,0,1.3-0.3,1.8-0.6c0.4-0.2,0.9-0.4,1.3-0.5c0.1,0,0.2-0.1,0.3-0.2l0.2,0
			c0,0,0.4,0,0.5-0.1c0.1,0,0.1,0,0.2,0c0.1,0,0.2,0,0.3,0c0.1,0,0.2,0,0.3,0c0.3,0,0.7-0.1,0.8-0.6c0.2-0.7,0-1.2-0.8-1.7
			c-0.1,0-0.1-0.2-0.1-0.3c0-0.1,0-0.1,0-0.1l1.2-0.5l1.1-0.5l0.3,0.4c0,0.4,0,0.7,0.5,0.8c0.3,0.1,0.6,0.1,0.9,0.2
			c0.8,0.2,1.6,0.4,2.4,0.5c0.2,0,0.3,0,0.5,0c0.7,0,1.2-0.2,1.8-0.8c0.4-0.4,0.8-0.6,1.2-0.6c0.6,0,1.1,0.3,1.6,0.9
			c0.9,1.1,2,1.6,3.3,1.6l0.2,0l4.7,2.8C337.8,105.3,338.1,105.3,338.1,105.3z"/>
		<path class="st0" d="M25,56.6c-0.9-0.3-1.3-0.8-1.7-1.6c-0.3-0.5-0.7-0.9-1.1-1.1c0,0,0,0,0,0c-0.3-0.1-0.6-0.2-0.9-0.2
			c-0.5,0-1,0.2-1.6,0.5c-0.3,0.2-0.6,0.4-1,0.4c-0.1,0-0.2,0-0.2,0c-0.2,0.3-0.2,0.6-0.1,0.9c0.1,0.3,0.4,0.5,0.9,0.7
			c0.1,0.1,0.2,0.3,0.3,0.4c0,0,0,0.1,0.1,0.1c0.3,0.5,0.6,1,0.9,1.5c0.3,0.5,0.6,1.1,0.9,1.5c0.6,0.7,1.1,1.6,1.6,2.7
			c0.3,0.7,0.8,1,1.4,1c0.2,0,0.4,0,0.6-0.1c0.9-0.2,1.4-0.8,1.3-1.7l0-0.1c0-0.4-0.1-0.9,0.1-1.3C27,58.5,26.4,57,25,56.6z"/>
		<path class="st0" d="M12.8,44.1l-0.4-0.4c-0.1-0.1-0.1-0.2-0.2-0.3c0-0.1-0.1-0.1-0.2-0.2c-0.2-0.2-0.4-0.4-0.6-0.5c0,0,0,0,0,0
			c-0.5-0.4-1.2-0.6-1.8-0.9l-0.3-0.1c-0.2-0.1-0.4-0.2-0.5-0.3c-0.6-0.3-1.1-0.6-1.2-1.3c-0.3-0.4-0.7-0.6-1.1-0.6
			c-0.5,0-1,0.4-1.4,0.8c-0.5,0.5-0.7,0.9-0.7,1.4c0,0.5,0.3,0.9,0.8,1.3c0.5,0.6,1.2,0.9,2,1.1c0.7,0.2,1.5,0.5,2.2,0.9
			c0,0,0,0,0,0c0.2,0.2,0.5,0.3,0.7,0.5c0.1,0,0.1,0.1,0.2,0.2c0.1,0.1,0.2,0.2,0.3,0.3c0.4,0.5,0.8,0.7,1.2,0.7h0
			c0.2,0,0.4,0,0.5-0.1c0.6-0.3,0.6-0.8,0.6-1.4c0-0.1,0-0.3,0-0.4c0-0.2-0.1-0.5-0.2-0.7L12.8,44.1z"/>
		<path class="st0" d="M50.4,98.2c0.1,0,0.1-0.1,0.2-0.1c0.6-0.6,0.3-1.2,0-1.7l-0.2-0.3c-0.3-0.5-0.6-1.1-1.3-1.4l-0.6-1.1
			c-0.2-0.1-0.2-0.3-0.2-0.6c0-0.2,0-0.5-0.2-0.6c-0.2-0.1-0.3-0.2-0.4-0.3c-0.2-0.1-0.3-0.2-0.5-0.3c-0.1-0.1-0.2-0.1-0.3-0.2
			c-0.3-0.2-0.7-0.4-1-0.4c-0.2,0-0.4,0.1-0.6,0.2c-0.8,0.7-0.5,1.5,0,2.2c0.3,1.1,0.8,1.9,1.8,2.5c0.8,0.5,1.2,1.4,1.6,2.3
			c0.1,0.3,0.2,0.5,0.3,0.8c0.2,0.4,0.5,0.6,0.8,0.6c0.1,0,0.3,0,0.4-0.1c0.2-0.1,0.4-0.2,0.4-0.3c0-0.2-0.2-0.4-0.4-0.6
			c-0.1-0.1-0.2-0.3-0.2-0.4C50.1,98.4,50.3,98.3,50.4,98.2z"/>
		<path class="st0" d="M45,90.2c-0.1-0.2-0.2-0.3-0.1-0.5c-0.1-0.2-0.2-0.4-0.3-0.6c-0.3-0.4-0.5-0.9-0.8-1.2
			c-0.4-0.5-1-0.8-1.5-0.8c-0.2,0-0.4,0-0.6,0.1c-0.6,0.3-0.5,0.9-0.4,1.4c0,0.2,0.1,0.3,0.1,0.4c0,0.5,0.4,0.5,0.7,0.6
			c0.2,0,0.4,0.1,0.6,0.2c0,0,0,0,0,0c0,0,0,0,0,0c0,0,0,0,0,0c0.3,0,0.5,0.2,0.7,0.4c0.1,0.1,0.3,0.3,0.5,0.3
			c0.1,0,0.2,0.1,0.3,0.2c0.2,0.1,0.3,0.2,0.5,0.2c0.1,0,0.3-0.1,0.4-0.2C45.3,90.6,45.2,90.4,45,90.2z"/>
		<path class="st0" d="M66.8,118.1l-0.2,0c0,0-0.1,0-0.1,0c-0.1,0-0.1,0-0.2,0c-0.1,0-0.2,0-0.3,0c-0.2,0-0.3,0.1-0.4,0.4
			c-0.1,0.5,0.2,0.7,0.5,0.9c0.1,0,0.1,0.1,0.2,0.1c0.2,0.1,0.3,0.2,0.5,0.4c0.3,0.2,0.6,0.4,0.8,0.7c0.1,0.1,0.1,0.1,0.2,0.2
			c0.2,0.2,0.4,0.4,0.7,0.4c0.2,0,0.3-0.1,0.5-0.3c0.5-0.5,0.5-1.2,0-1.8C68.5,118.4,67.8,118.1,66.8,118.1z"/>
		<path class="st0" d="M31.5,66.6c0.2,0.6,0.6,0.9,1.4,0.9h0.2c0.5,0,1.1,0,1.6,0l0.8,0c0,0,0,0,0,0c0.1-1.4-0.7-1.5-1.5-1.6
			c-0.3,0-0.5-0.1-0.8-0.1l-1,0.1C31.8,66.1,31.6,66.3,31.5,66.6z"/>
		<path class="st0" d="M20.2,49.2L20.2,49.2c0.6-0.1,0.6-0.6,0.7-1c0-0.1,0-0.2,0.1-0.3c-0.1-1-0.5-1.5-1.4-1.5l-0.2,0l-0.4,0
			c-0.3,0-0.6,0.1-0.7,0.6c0,0.2,0.5,0.8,0.9,1.3C19.4,48.6,20,49.2,20.2,49.2z"/>
		<path class="st0" d="M39.5,83l-0.7-0.8L38.5,82l0-0.4L37.7,80c0-0.1,0-0.2,0-0.3c0-0.1-0.1-0.1-0.2-0.1c0,0,0,0,0,0
			c-0.3-0.2-0.3-0.4-0.3-0.7c0,0-0.1,0-0.1,0c0,0-0.1,0-0.1,0c0,0,0,0,0,0c0.2-0.9-0.4-1.3-1-1.7c0.1-0.3-0.1-0.5-0.2-0.7
			c-0.1-0.1-0.1-0.2-0.2-0.3c-0.1,0-0.1,0-0.2,0c-0.3,0-0.5,0.2-0.8,0.3c-0.2,0.2-0.5,0.3-0.8,0.3c0,0,0,0,0,0
			c-0.8,0-1.2,0.4-1.4,1.4L32.1,79c-0.2,0.3-0.2,0.7,0,1l0.3,0.3c-0.1,0.6,0.3,0.8,0.6,1.1c0.1,0.1,0.2,0.2,0.3,0.3l0.2,0.6
			c0,0.6,0,1.3,0.8,1.6l0,0.2l0,0.2l2.2,1.2c0,0.1,0.1,0.2,0.1,0.3c0.2,0.2,0.5,0.3,0.7,0.3c0.3,0,0.5-0.2,0.7-0.5l0.7-0.6
			c0.9-0.3,0.8-0.8,0.7-1.4C39.5,83.5,39.5,83.2,39.5,83z"/>
		<path class="st0" d="M32.5,52.1c-0.1-0.1-0.2-0.2-0.3-0.3l-0.2,0c-0.2,0-0.4-0.1-0.6-0.1c-0.2,0-0.3,0-0.5,0.1
			c-0.3,0.5-0.4,0.7-0.3,0.9c0,0,0.1,0,0.1,0.1c0,0,0,0,0,0c0.1,0.1,0.3,0.1,0.5,0.1c0.1,0,0.2,0,0.3,0c0.3,0,0.7,0,1,0l0.5,0
			C33,52.5,32.7,52.3,32.5,52.1z"/>
		<path class="st0" d="M32.2,73.7c0.2-0.3,0.5-0.6,0.3-1l0-0.2c0-0.6,0.1-1.3-0.3-1.9c0.1-1.1-0.6-1.9-1.1-2.3
			c-0.2-0.2-0.5-0.4-0.9-0.4c-0.3,0-0.6,0.1-0.9,0.2c-0.2,0.1-0.2,0.2-0.3,0.3c0,0.1,0.1,0.3,0.2,0.4c0.1,0.1,0.2,0.3,0.2,0.4
			c0,0,0,0,0,0l0,0c0,0,0,0,0,0c0.1,0,0.1,0,0.2,0c0.2,0,0.4,0.1,0.5,0.4c-0.1,0.2,0,0.3,0,0.5c0,0.2,0.1,0.4-0.1,0.6
			c0,0.2-0.1,0.5-0.2,0.7c-0.2,0.5-0.3,1.1-0.1,1.6c0,0.3,0,0.5,0.1,0.7c0,0,0,0,0,0c0,0,0,0.1,0.1,0.1c0.1,0.1,0.3,0.2,0.5,0.2
			c0.1,0,0.3,0,0.5,0c0.2,0,0.3,0,0.5,0c0.1,0,0.3,0,0.4,0.1l0.3-0.1C32.2,73.8,32.2,73.7,32.2,73.7z"/>
		<path class="st0" d="M289,145.5c-0.7,0-1.2,0.4-1.4,1.2c-0.1,0.2,0,0.4,0.1,0.6c0,0,0,0,0,0c0,0,0,0.1,0,0.1
			c0.1,0.1,0.2,0.2,0.3,0.2c0,0,0.1,0,0.1,0c0.7-0.1,1.3-0.5,1.5-1.3c0-0.3,0-0.5-0.2-0.7C289.4,145.6,289.3,145.5,289,145.5
			C289,145.5,289,145.5,289,145.5z"/>
		<path class="st0" d="M254.1,115.8c-0.1,0-0.2,0-0.2,0c-0.3,0-0.5,0.2-0.7,0.4c-0.1,0.1-0.2,0.2-0.4,0.3l-0.1,0.6
			c-0.4,0.6-0.4,1.2,0.1,1.8l0.9,1.4c0.2,0.4,0.6,0.7,1,0.9c0,0,0,0,0,0c0,0,0,0,0,0c0,0,0,0,0,0c0-0.1,0.1-0.2,0.2-0.2
			c0.1-0.1,0.3-0.2,0.2-0.4c0-0.5,0-0.9,0.3-1.4c0.1-0.6,0.2-1.2-0.2-1.8C255.1,116.7,255,116,254.1,115.8z"/>
		<path class="st0" d="M204.3,150.7c0.4-0.3,0.4-0.8,0.3-1.2c0.1,0,0.2-0.1,0.3-0.2c0.3-0.5,0.4-1,0.3-1.4c-0.1-0.5-0.5-0.8-1.3-1.2
			c-0.9-0.4-1.6-0.6-2.4-0.6c-0.5,0-1,0.1-1.5,0.3c-0.8,0.2-1.3,0.6-1.5,1.3l-0.3,0.5l-0.1,0.2c0,0,0,0,0,0l0,0l0,0l0.1,0
			c-0.2,0.3-0.1,0.6-0.1,0.8l0,0.2c0,0.3,0,0.6-0.1,0.8c-0.3,0.8-1.1,1.2-1.9,1.5c0,0.4,0.1,0.9,0.7,1.1c0.5,0.6,1.2,0.6,1.8,0.6
			l0.5,0c1.1,0,2.1,0,3.2,0l1.2,0c0.1,0,0.2,0,0.3,0c0,0,0,0,0,0l0,0C203.6,152.4,203.4,151.5,204.3,150.7z"/>
		<path class="st0" d="M242.7,162.1l-0.9-0.7l-0.2-0.2c-0.3-0.3-0.6-0.7-1.1-0.8c-0.4-0.5-1-0.8-1.6-1l-0.4-0.1l-0.4-0.4
			c-0.9-1.1-1.9-2.3-3-2.3c-0.1,0-0.2,0-0.3,0c-1.1,0.3-2.2,0.3-3.4,0.3c-1.6,0-3.3,0.1-4.8,0.8c-0.9,0.5-1.3,1-1.3,1.5
			c-0.1,0.5,0.3,1.2,1.3,2c0.6,0.5,1.3,0.6,1.8,0.6c0.3,0,0.5,0,0.8,0c0.3,0,0.5,0,0.8,0c0.2,0,0.4,0,0.6,0.1c0.1,0,0.2,0,0.4,0
			l0.4,0c0.5,0,0.9,0.1,1.1,0.8c0.7,0.9,1.6,1.3,2.7,1.7c0,0.3,0.2,0.5,0.5,0.6c0.1,1,0.9,1.3,1.7,1.6c0.2,0.1,0.4,0.1,0.6,0.2
			l0.1,0l0.1,0.1c0.2,0.1,0.4,0.2,0.5,0.2c0.2,0,0.3-0.1,0.4-0.2c0.1,0.2,0.3,0.2,0.5,0.3c0,0,0,0,0,0c0,0,1.1-0.3,1.1-0.3
			c0.1,0,0.1-0.1,0.2-0.1c0.1-0.1,0.2-0.2,0.4-0.2c1.7-0.5,2.5-1,2.6-1.6c0-0.1,0-0.1,0-0.2c0,0,0,0,0-0.1
			C243.9,163.8,243.5,163.1,242.7,162.1z"/>
		<path class="st0" d="M253.8,167.1c-0.1,0-0.2,0-0.3,0c-0.1,0.1-0.1,0.1-0.2,0.2c-0.1,0.1-0.3,0.2-0.4,0.4
			c-0.1,0.2-0.4,0.4-0.7,0.5c-0.3,0.2-0.7,0.3-0.7,0.6c-0.1,0.2,0,0.4,0.1,0.6c0.2,0.3,0.5,0.5,1,0.5c0.3,0,0.7-0.1,1-0.1
			c0.1,0,0.3-0.1,0.4-0.1c0,0,0.1,0,0.2-0.1l0.4-0.2c0.4-0.2,1-0.4,0.9-1.1C255,167.5,254.5,167.1,253.8,167.1z"/>
	</g>
	<g>
		<g>
			<circle class="st1" cx="120.6" cy="130.7" r="5.7"/>
			<path class="st2" d="M120.7,124.6c-3.3,0-6,2.7-6,6c0,3.3,2.7,6,6,6s6-2.7,6-6C126.7,127.3,124,124.6,120.7,124.6z M120.7,136.1
				c-3,0-5.4-2.4-5.4-5.4s2.4-5.4,5.4-5.4s5.4,2.4,5.4,5.4S123.7,136.1,120.7,136.1z"/>
			<path class="st2" d="M123.8,132.6c-0.2-0.1-0.6-0.4-0.6-0.5c-0.1-0.1-0.2-0.3-0.2-0.4c0-0.1,0-0.3,0.2-0.4
				c0.4-0.4,1.2-0.7,1.5-1.4c0.3-0.7-0.2-1.3-0.4-1.7c-0.1-0.1-0.2-0.3-0.4-0.4c-0.3-0.2-0.9-0.6-1.6-0.6c-1.1-0.1-2.6-0.3-4.4,0.6
				c-1.9,1-1.6,2.8-1.6,2.8s0.8-2,2.9-2.3l-1.5,4.7c0,0-0.1,0.2-0.1,0.8h1.8c0,0-0.1-0.5,0.1-0.8c0.1-0.3,0.6-1.3,0.6-1.3
				s0.6-0.2,1.7,1.1c1,1.2,1.5,1.2,1.5,1.2s0.5,0.1,0.8,0c0.8-0.3,1.1-0.9,1.1-1.2C124.6,133,124.1,132.8,123.8,132.6z M122.3,130
				c-0.2,0.2-0.4,0.4-0.5,0.5c-0.1,0.1-0.3,0.2-0.5,0.2c-0.3,0-0.7,0-1,0l0.7-2c0,0,0.3-0.4,1,0S122.6,129.7,122.3,130z"/>
		</g>
		<g>
			<g>
				<path class="st2" d="M106.6,141.4c-0.2-0.1-0.3-0.2-0.4-0.3l0.4-0.4c0.2,0.2,0.3,0.3,0.5,0.3c0.3,0,0.4-0.2,0.4-0.5v-1.3h-1
					v-0.5h1.6v1.8c0,0.3-0.1,0.6-0.3,0.8c-0.2,0.2-0.4,0.3-0.8,0.3C107,141.6,106.8,141.5,106.6,141.4z"/>
				<path class="st2" d="M110.6,140.9h-1.3l-0.2,0.6h-0.7l1.2-2.8h0.6l1.3,2.8h-0.7L110.6,140.9z M110.4,140.4l-0.4-1.1l-0.4,1.1
					H110.4z"/>
				<path class="st2" d="M114.4,138.7l-1.2,2.8h-0.6l-1.2-2.8h0.7l0.9,2l0.9-2H114.4z"/>
				<path class="st2" d="M116.3,140.9H115l-0.2,0.6h-0.7l1.2-2.8h0.6l1.3,2.8h-0.7L116.3,140.9z M116.1,140.4l-0.4-1.1l-0.4,1.1
					H116.1z"/>
				<path class="st2" d="M118.7,138.7h0.6v2.8h-0.6V138.7z"/>
				<path class="st2" d="M120.3,141.5c-0.2-0.1-0.4-0.1-0.5-0.2l0.2-0.5c0.1,0.1,0.3,0.2,0.4,0.2c0.2,0.1,0.3,0.1,0.5,0.1
					c0.2,0,0.3,0,0.4-0.1s0.1-0.1,0.1-0.2c0-0.1,0-0.1-0.1-0.2c-0.1,0-0.1-0.1-0.2-0.1c-0.1,0-0.2-0.1-0.3-0.1
					c-0.2-0.1-0.4-0.1-0.5-0.2s-0.3-0.1-0.3-0.2c-0.1-0.1-0.1-0.3-0.1-0.4c0-0.2,0-0.3,0.1-0.4s0.2-0.2,0.4-0.3
					c0.2-0.1,0.4-0.1,0.6-0.1c0.2,0,0.4,0,0.5,0.1c0.2,0,0.3,0.1,0.4,0.2l-0.2,0.5c-0.3-0.1-0.5-0.2-0.8-0.2c-0.2,0-0.3,0-0.4,0.1
					c-0.1,0.1-0.1,0.1-0.1,0.2s0.1,0.2,0.2,0.2s0.3,0.1,0.5,0.1c0.2,0.1,0.4,0.1,0.5,0.2c0.1,0.1,0.3,0.1,0.3,0.2s0.1,0.3,0.1,0.4
					c0,0.2,0,0.3-0.1,0.4c-0.1,0.1-0.2,0.2-0.4,0.3c-0.2,0.1-0.4,0.1-0.7,0.1C120.7,141.6,120.5,141.5,120.3,141.5z"/>
				<path class="st2" d="M122.6,138.7h0.6v2.3h1.4v0.5h-2.1V138.7z"/>
				<path class="st2" d="M126.8,140.9h-1.3l-0.2,0.6h-0.7l1.2-2.8h0.6l1.3,2.8h-0.7L126.8,140.9z M126.6,140.4l-0.4-1.1l-0.4,1.1
					H126.6z"/>
				<path class="st2" d="M130.6,138.7v2.8h-0.5l-1.4-1.7v1.7h-0.6v-2.8h0.5l1.4,1.7v-1.7H130.6z"/>
				<path class="st2" d="M131.3,138.7h1.3c0.3,0,0.6,0.1,0.8,0.2s0.4,0.3,0.5,0.5c0.1,0.2,0.2,0.5,0.2,0.7c0,0.3-0.1,0.5-0.2,0.7
					c-0.1,0.2-0.3,0.4-0.5,0.5s-0.5,0.2-0.8,0.2h-1.3V138.7z M132.5,141c0.3,0,0.5-0.1,0.7-0.2c0.2-0.2,0.3-0.4,0.3-0.6
					s-0.1-0.5-0.3-0.6c-0.2-0.2-0.4-0.2-0.7-0.2h-0.6v1.7H132.5z"/>
			</g>
		</g>
	</g>
	<g>
		<g>
			<path class="st2" d="M46.4,66.7c-0.2-0.1-0.4-0.1-0.5-0.2l0.2-0.5c0.1,0.1,0.3,0.2,0.4,0.2c0.2,0.1,0.3,0.1,0.5,0.1
				c0.2,0,0.3,0,0.4-0.1s0.1-0.1,0.1-0.2c0-0.1,0-0.1-0.1-0.2c-0.1,0-0.1-0.1-0.2-0.1c-0.1,0-0.2-0.1-0.3-0.1
				c-0.2-0.1-0.4-0.1-0.5-0.2s-0.3-0.1-0.3-0.2C46.1,65.1,46,65,46,64.8c0-0.2,0-0.3,0.1-0.4s0.2-0.2,0.4-0.3
				c0.2-0.1,0.4-0.1,0.6-0.1c0.2,0,0.4,0,0.5,0.1c0.2,0,0.3,0.1,0.4,0.2L48,64.7c-0.3-0.1-0.5-0.2-0.8-0.2c-0.2,0-0.3,0-0.4,0.1
				c-0.1,0.1-0.1,0.1-0.1,0.2s0.1,0.2,0.2,0.2s0.3,0.1,0.5,0.1c0.2,0.1,0.4,0.1,0.5,0.2c0.1,0.1,0.3,0.1,0.3,0.2s0.1,0.3,0.1,0.4
				c0,0.2,0,0.3-0.1,0.4c-0.1,0.1-0.2,0.2-0.4,0.3c-0.2,0.1-0.4,0.1-0.7,0.1C46.9,66.8,46.7,66.8,46.4,66.7z"/>
			<path class="st2" d="M49,66.5c-0.2-0.2-0.3-0.5-0.3-0.9V64h0.6v1.5c0,0.5,0.2,0.8,0.6,0.8c0.2,0,0.4-0.1,0.5-0.2
				c0.1-0.1,0.2-0.3,0.2-0.6V64h0.6v1.6c0,0.4-0.1,0.7-0.3,0.9c-0.2,0.2-0.5,0.3-0.9,0.3C49.6,66.8,49.3,66.7,49,66.5z"/>
			<path class="st2" d="M54.4,66.8l0-1.7l-0.8,1.4h-0.3l-0.8-1.3v1.6h-0.6V64h0.5l1,1.7l1-1.7H55l0,2.8H54.4z"/>
			<path class="st2" d="M57.5,66.2h-1.3L56,66.8h-0.7l1.2-2.8h0.6l1.3,2.8h-0.7L57.5,66.2z M57.3,65.7l-0.4-1.1l-0.4,1.1H57.3z"/>
			<path class="st2" d="M59.2,64.5h-0.9V64h2.4v0.5h-0.9v2.3h-0.6V64.5z"/>
			<path class="st2" d="M62.9,66.8L62.3,66h0h-0.6v0.8h-0.6V64h1.2c0.2,0,0.5,0,0.6,0.1c0.2,0.1,0.3,0.2,0.4,0.4
				c0.1,0.2,0.1,0.3,0.1,0.5s0,0.4-0.1,0.5c-0.1,0.2-0.2,0.3-0.4,0.3l0.6,0.9H62.9z M62.7,64.6c-0.1-0.1-0.3-0.1-0.4-0.1h-0.5v1h0.5
				c0.2,0,0.3,0,0.4-0.1c0.1-0.1,0.2-0.2,0.2-0.4C62.9,64.8,62.8,64.7,62.7,64.6z"/>
			<path class="st2" d="M65.9,66.2h-1.3l-0.2,0.6h-0.7l1.2-2.8h0.6l1.3,2.8h-0.7L65.9,66.2z M65.7,65.7l-0.4-1.1l-0.4,1.1H65.7z"/>
		</g>
	</g>
	<g>
		<g>
			<path class="st2" d="M171.5,80.8c0.1,0.1,0.1,0.3,0.1,0.4c0,0.2-0.1,0.4-0.3,0.6c-0.2,0.1-0.5,0.2-0.8,0.2h-1.4v-2.8h1.4
				c0.3,0,0.6,0.1,0.8,0.2c0.2,0.1,0.3,0.3,0.3,0.5c0,0.1,0,0.3-0.1,0.4s-0.2,0.2-0.3,0.3C171.3,80.6,171.4,80.7,171.5,80.8z
				 M169.7,79.7v0.7h0.6c0.2,0,0.3,0,0.4-0.1c0.1-0.1,0.1-0.1,0.1-0.2s0-0.2-0.1-0.2c-0.1-0.1-0.2-0.1-0.4-0.1H169.7z M170.9,81.5
				c0.1-0.1,0.1-0.1,0.1-0.3c0-0.2-0.2-0.3-0.5-0.3h-0.8v0.7h0.8C170.6,81.6,170.8,81.5,170.9,81.5z"/>
			<path class="st2" d="M172.7,81.9c-0.2-0.1-0.4-0.3-0.5-0.5c-0.1-0.2-0.2-0.5-0.2-0.7c0-0.3,0.1-0.5,0.2-0.7
				c0.1-0.2,0.3-0.4,0.5-0.5c0.2-0.1,0.5-0.2,0.8-0.2c0.3,0,0.6,0.1,0.8,0.2c0.2,0.1,0.4,0.3,0.5,0.5c0.1,0.2,0.2,0.5,0.2,0.7
				c0,0.3-0.1,0.5-0.2,0.7c-0.1,0.2-0.3,0.4-0.5,0.5c-0.2,0.1-0.5,0.2-0.8,0.2C173.2,82.1,172.9,82,172.7,81.9z M173.9,81.4
				c0.1-0.1,0.2-0.2,0.3-0.3c0.1-0.1,0.1-0.3,0.1-0.5c0-0.2,0-0.3-0.1-0.5c-0.1-0.1-0.2-0.2-0.3-0.3c-0.1-0.1-0.3-0.1-0.4-0.1
				c-0.2,0-0.3,0-0.4,0.1c-0.1,0.1-0.2,0.2-0.3,0.3c-0.1,0.1-0.1,0.3-0.1,0.5c0,0.2,0,0.3,0.1,0.5c0.1,0.1,0.2,0.2,0.3,0.3
				c0.1,0.1,0.3,0.1,0.4,0.1C173.7,81.5,173.8,81.5,173.9,81.4z"/>
			<path class="st2" d="M177.3,82l-0.5-0.8h0h-0.6V82h-0.6v-2.8h1.2c0.2,0,0.5,0,0.6,0.1c0.2,0.1,0.3,0.2,0.4,0.4
				c0.1,0.2,0.1,0.3,0.1,0.5s0,0.4-0.1,0.5c-0.1,0.2-0.2,0.3-0.4,0.3L178,82H177.3z M177.1,79.9c-0.1-0.1-0.3-0.1-0.4-0.1h-0.5v1
				h0.5c0.2,0,0.3,0,0.4-0.1c0.1-0.1,0.2-0.2,0.2-0.4C177.3,80.1,177.2,80,177.1,79.9z"/>
			<path class="st2" d="M181,79.2V82h-0.5l-1.4-1.7V82h-0.6v-2.8h0.5l1.4,1.7v-1.7H181z"/>
			<path class="st2" d="M183.9,81.5V82h-2.2v-2.8h2.1v0.5h-1.5v0.6h1.3v0.5h-1.3v0.6H183.9z"/>
			<path class="st2" d="M184.9,81.9c-0.2-0.1-0.4-0.3-0.5-0.5c-0.1-0.2-0.2-0.5-0.2-0.7c0-0.3,0.1-0.5,0.2-0.7
				c0.1-0.2,0.3-0.4,0.5-0.5c0.2-0.1,0.5-0.2,0.8-0.2c0.3,0,0.6,0.1,0.8,0.2c0.2,0.1,0.4,0.3,0.5,0.5c0.1,0.2,0.2,0.5,0.2,0.7
				c0,0.3-0.1,0.5-0.2,0.7c-0.1,0.2-0.3,0.4-0.5,0.5c-0.2,0.1-0.5,0.2-0.8,0.2C185.4,82.1,185.2,82,184.9,81.9z M186.2,81.4
				c0.1-0.1,0.2-0.2,0.3-0.3c0.1-0.1,0.1-0.3,0.1-0.5c0-0.2,0-0.3-0.1-0.5c-0.1-0.1-0.2-0.2-0.3-0.3c-0.1-0.1-0.3-0.1-0.4-0.1
				c-0.2,0-0.3,0-0.4,0.1c-0.1,0.1-0.2,0.2-0.3,0.3c-0.1,0.1-0.1,0.3-0.1,0.5c0,0.2,0,0.3,0.1,0.5c0.1,0.1,0.2,0.2,0.3,0.3
				c0.1,0.1,0.3,0.1,0.4,0.1C185.9,81.5,186,81.5,186.2,81.4z"/>
		</g>
	</g>
	<g>
		<g>
			<path class="st2" d="M231.4,147.3v2.8h-0.5l-1.4-1.7v1.7h-0.6v-2.8h0.5l1.4,1.7v-1.7H231.4z"/>
			<path class="st2" d="M232.4,149.8c-0.2-0.2-0.3-0.5-0.3-0.9v-1.6h0.6v1.5c0,0.5,0.2,0.8,0.6,0.8c0.2,0,0.4-0.1,0.5-0.2
				c0.1-0.1,0.2-0.3,0.2-0.6v-1.5h0.6v1.6c0,0.4-0.1,0.7-0.3,0.9c-0.2,0.2-0.5,0.3-0.9,0.3C233,150.1,232.6,150,232.4,149.8z"/>
			<path class="st2" d="M235.5,150c-0.2-0.1-0.4-0.1-0.5-0.2l0.2-0.5c0.1,0.1,0.3,0.2,0.4,0.2c0.2,0.1,0.3,0.1,0.5,0.1
				c0.2,0,0.3,0,0.4-0.1s0.1-0.1,0.1-0.2c0-0.1,0-0.1-0.1-0.2c-0.1,0-0.1-0.1-0.2-0.1c-0.1,0-0.2-0.1-0.3-0.1
				c-0.2-0.1-0.4-0.1-0.5-0.2s-0.3-0.1-0.3-0.2c-0.1-0.1-0.1-0.3-0.1-0.4c0-0.2,0-0.3,0.1-0.4s0.2-0.2,0.4-0.3
				c0.2-0.1,0.4-0.1,0.6-0.1c0.2,0,0.4,0,0.5,0.1c0.2,0,0.3,0.1,0.4,0.2l-0.2,0.5c-0.3-0.1-0.5-0.2-0.8-0.2c-0.2,0-0.3,0-0.4,0.1
				c-0.1,0.1-0.1,0.1-0.1,0.2s0.1,0.2,0.2,0.2s0.3,0.1,0.5,0.1c0.2,0.1,0.4,0.1,0.5,0.2c0.1,0.1,0.3,0.1,0.3,0.2s0.1,0.3,0.1,0.4
				c0,0.2,0,0.3-0.1,0.4c-0.1,0.1-0.2,0.2-0.4,0.3c-0.2,0.1-0.4,0.1-0.7,0.1C236,150.1,235.7,150.1,235.5,150z"/>
			<path class="st2" d="M239.7,149.5h-1.3l-0.2,0.6h-0.7l1.2-2.8h0.6l1.3,2.8h-0.7L239.7,149.5z M239.5,149l-0.4-1.1l-0.4,1.1H239.5
				z"/>
			<path class="st2" d="M242.6,147.8h-0.9v-0.5h2.4v0.5h-0.9v2.3h-0.6V147.8z"/>
			<path class="st2" d="M246.6,149.6v0.5h-2.2v-2.8h2.1v0.5h-1.5v0.6h1.3v0.5h-1.3v0.6H246.6z"/>
			<path class="st2" d="M249.7,147.3v2.8h-0.5l-1.4-1.7v1.7h-0.6v-2.8h0.5l1.4,1.7v-1.7H249.7z"/>
			<path class="st2" d="M252.3,148.6h0.6v1.1c-0.2,0.1-0.3,0.2-0.5,0.3s-0.4,0.1-0.6,0.1c-0.3,0-0.6-0.1-0.8-0.2
				c-0.2-0.1-0.4-0.3-0.5-0.5c-0.1-0.2-0.2-0.5-0.2-0.7s0.1-0.5,0.2-0.7c0.1-0.2,0.3-0.4,0.6-0.5c0.2-0.1,0.5-0.2,0.8-0.2
				c0.2,0,0.5,0,0.7,0.1c0.2,0.1,0.4,0.2,0.5,0.4l-0.4,0.4c-0.2-0.2-0.4-0.3-0.7-0.3c-0.2,0-0.3,0-0.5,0.1c-0.1,0.1-0.2,0.2-0.3,0.3
				s-0.1,0.3-0.1,0.5c0,0.2,0,0.3,0.1,0.5c0.1,0.1,0.2,0.2,0.3,0.3s0.3,0.1,0.5,0.1c0.2,0,0.4,0,0.5-0.1V148.6z"/>
			<path class="st2" d="M255.4,148.6h0.6v1.1c-0.2,0.1-0.3,0.2-0.5,0.3s-0.4,0.1-0.6,0.1c-0.3,0-0.6-0.1-0.8-0.2
				c-0.2-0.1-0.4-0.3-0.5-0.5c-0.1-0.2-0.2-0.5-0.2-0.7s0.1-0.5,0.2-0.7c0.1-0.2,0.3-0.4,0.6-0.5c0.2-0.1,0.5-0.2,0.8-0.2
				c0.2,0,0.5,0,0.7,0.1c0.2,0.1,0.4,0.2,0.5,0.4l-0.4,0.4c-0.2-0.2-0.4-0.3-0.7-0.3c-0.2,0-0.3,0-0.5,0.1c-0.1,0.1-0.2,0.2-0.3,0.3
				s-0.1,0.3-0.1,0.5c0,0.2,0,0.3,0.1,0.5c0.1,0.1,0.2,0.2,0.3,0.3s0.3,0.1,0.5,0.1c0.2,0,0.4,0,0.5-0.1V148.6z"/>
			<path class="st2" d="M258.4,149.5h-1.3l-0.2,0.6h-0.7l1.2-2.8h0.6l1.3,2.8h-0.7L258.4,149.5z M258.2,149l-0.4-1.1l-0.4,1.1H258.2
				z"/>
			<path class="st2" d="M261.4,150.1l-0.5-0.8h0h-0.6v0.8h-0.6v-2.8h1.2c0.2,0,0.5,0,0.6,0.1c0.2,0.1,0.3,0.2,0.4,0.4
				c0.1,0.2,0.1,0.3,0.1,0.5s0,0.4-0.1,0.5c-0.1,0.2-0.2,0.3-0.4,0.3l0.6,0.9H261.4z M261.3,147.9c-0.1-0.1-0.3-0.1-0.4-0.1h-0.5v1
				h0.5c0.2,0,0.3,0,0.4-0.1c0.1-0.1,0.2-0.2,0.2-0.4C261.4,148.1,261.4,148,261.3,147.9z"/>
			<path class="st2" d="M264.4,149.5h-1.3l-0.2,0.6h-0.7l1.2-2.8h0.6l1.3,2.8h-0.7L264.4,149.5z M264.2,149l-0.4-1.1l-0.4,1.1H264.2
				z"/>
		</g>
	</g>
	<g>
		<g>
			<path class="st2" d="M187.7,148.3c0.1,0.1,0.1,0.3,0.1,0.4c0,0.2-0.1,0.4-0.3,0.6c-0.2,0.1-0.5,0.2-0.8,0.2h-1.4v-2.8h1.4
				c0.3,0,0.6,0.1,0.8,0.2c0.2,0.1,0.3,0.3,0.3,0.5c0,0.1,0,0.3-0.1,0.4s-0.2,0.2-0.3,0.3C187.5,148.1,187.7,148.1,187.7,148.3z
				 M186,147.1v0.7h0.6c0.2,0,0.3,0,0.4-0.1c0.1-0.1,0.1-0.1,0.1-0.2s0-0.2-0.1-0.2c-0.1-0.1-0.2-0.1-0.4-0.1H186z M187.1,148.9
				c0.1-0.1,0.1-0.1,0.1-0.3c0-0.2-0.2-0.3-0.5-0.3H186v0.7h0.8C186.9,149,187,148.9,187.1,148.9z"/>
			<path class="st2" d="M190.2,148.9h-1.3l-0.2,0.6H188l1.2-2.8h0.6l1.3,2.8h-0.7L190.2,148.9z M190,148.4l-0.4-1.1l-0.4,1.1H190z"
				/>
			<path class="st2" d="M191.4,146.7h0.6v2.3h1.4v0.5h-2.1V146.7z"/>
			<path class="st2" d="M193.9,146.7h0.6v2.8h-0.6V146.7z"/>
		</g>
	</g>
	<g>
		<g>
			<path class="st2" d="M225.8,97.5c-0.2-0.1-0.4-0.1-0.5-0.2l0.2-0.5c0.1,0.1,0.3,0.2,0.4,0.2c0.2,0.1,0.3,0.1,0.5,0.1
				c0.2,0,0.3,0,0.4-0.1s0.1-0.1,0.1-0.2c0-0.1,0-0.1-0.1-0.2c-0.1,0-0.1-0.1-0.2-0.1c-0.1,0-0.2-0.1-0.3-0.1
				c-0.2-0.1-0.4-0.1-0.5-0.2s-0.3-0.1-0.3-0.2c-0.1-0.1-0.1-0.3-0.1-0.4c0-0.2,0-0.3,0.1-0.4s0.2-0.2,0.4-0.3
				c0.2-0.1,0.4-0.1,0.6-0.1c0.2,0,0.4,0,0.5,0.1c0.2,0,0.3,0.1,0.4,0.2l-0.2,0.5c-0.3-0.1-0.5-0.2-0.8-0.2c-0.2,0-0.3,0-0.4,0.1
				c-0.1,0.1-0.1,0.1-0.1,0.2s0.1,0.2,0.2,0.2s0.3,0.1,0.5,0.1c0.2,0.1,0.4,0.1,0.5,0.2c0.1,0.1,0.3,0.1,0.3,0.2s0.1,0.3,0.1,0.4
				c0,0.2,0,0.3-0.1,0.4c-0.1,0.1-0.2,0.2-0.4,0.3c-0.2,0.1-0.4,0.1-0.7,0.1C226.2,97.6,226,97.5,225.8,97.5z"/>
			<path class="st2" d="M228.4,97.2c-0.2-0.2-0.3-0.5-0.3-0.9v-1.6h0.6v1.5c0,0.5,0.2,0.8,0.6,0.8c0.2,0,0.4-0.1,0.5-0.2
				c0.1-0.1,0.2-0.3,0.2-0.6v-1.5h0.6v1.6c0,0.4-0.1,0.7-0.3,0.9c-0.2,0.2-0.5,0.3-0.9,0.3C228.9,97.6,228.6,97.4,228.4,97.2z"/>
			<path class="st2" d="M231.2,94.7h0.6V97h1.4v0.5h-2.1V94.7z"/>
			<path class="st2" d="M235.5,96.9h-1.3l-0.2,0.6h-0.7l1.2-2.8h0.6l1.3,2.8h-0.7L235.5,96.9z M235.3,96.4l-0.4-1.1l-0.4,1.1H235.3z
				"/>
			<path class="st2" d="M240.8,94.7l-0.9,2.8h-0.7l-0.6-1.9l-0.6,1.9h-0.7l-0.9-2.8h0.7l0.6,2l0.7-2h0.6l0.6,2l0.7-2H240.8z"/>
			<path class="st2" d="M243.3,97v0.5h-2.2v-2.8h2.1v0.5h-1.5v0.6h1.3v0.5h-1.3V97H243.3z"/>
			<path class="st2" d="M244.1,97.5c-0.2-0.1-0.4-0.1-0.5-0.2l0.2-0.5c0.1,0.1,0.3,0.2,0.4,0.2c0.2,0.1,0.3,0.1,0.5,0.1
				c0.2,0,0.3,0,0.4-0.1s0.1-0.1,0.1-0.2c0-0.1,0-0.1-0.1-0.2c-0.1,0-0.1-0.1-0.2-0.1c-0.1,0-0.2-0.1-0.3-0.1
				c-0.2-0.1-0.4-0.1-0.5-0.2s-0.3-0.1-0.3-0.2c-0.1-0.1-0.1-0.3-0.1-0.4c0-0.2,0-0.3,0.1-0.4s0.2-0.2,0.4-0.3
				c0.2-0.1,0.4-0.1,0.6-0.1c0.2,0,0.4,0,0.5,0.1c0.2,0,0.3,0.1,0.4,0.2l-0.2,0.5c-0.3-0.1-0.5-0.2-0.8-0.2c-0.2,0-0.3,0-0.4,0.1
				c-0.1,0.1-0.1,0.1-0.1,0.2s0.1,0.2,0.2,0.2s0.3,0.1,0.5,0.1c0.2,0.1,0.4,0.1,0.5,0.2c0.1,0.1,0.3,0.1,0.3,0.2s0.1,0.3,0.1,0.4
				c0,0.2,0,0.3-0.1,0.4c-0.1,0.1-0.2,0.2-0.4,0.3c-0.2,0.1-0.4,0.1-0.7,0.1C244.6,97.6,244.3,97.5,244.1,97.5z"/>
			<path class="st2" d="M246.4,94.7h0.6v2.8h-0.6V94.7z"/>
		</g>
	</g>
	<g>
		<g>
			<path class="st2" d="M347.8,85.7h0.6v2.8h-0.6V85.7z"/>
			<path class="st2" d="M350.9,88.5l-0.5-0.8h0h-0.6v0.8h-0.6v-2.8h1.2c0.2,0,0.5,0,0.6,0.1c0.2,0.1,0.3,0.2,0.4,0.4
				c0.1,0.2,0.1,0.3,0.1,0.5s0,0.4-0.1,0.5c-0.1,0.2-0.2,0.3-0.4,0.3l0.6,0.9H350.9z M350.8,86.4c-0.1-0.1-0.3-0.1-0.4-0.1h-0.5v1
				h0.5c0.2,0,0.3,0,0.4-0.1c0.1-0.1,0.2-0.2,0.2-0.4C350.9,86.6,350.9,86.4,350.8,86.4z"/>
			<path class="st2" d="M352.1,85.7h0.6v2.8h-0.6V85.7z"/>
			<path class="st2" d="M355.2,87.9h-1.3l-0.2,0.6H353l1.2-2.8h0.6l1.3,2.8h-0.7L355.2,87.9z M355,87.4l-0.4-1.1l-0.4,1.1H355z"/>
			<path class="st2" d="M359,85.7v2.8h-0.5l-1.4-1.7v1.7h-0.6v-2.8h0.5l1.4,1.7v-1.7H359z"/>
			<path class="st2" d="M360.8,88.4c-0.2-0.1-0.3-0.2-0.4-0.3l0.4-0.4c0.2,0.2,0.3,0.3,0.5,0.3c0.3,0,0.4-0.2,0.4-0.5v-1.3h-1v-0.5
				h1.6v1.8c0,0.3-0.1,0.6-0.3,0.8c-0.2,0.2-0.4,0.3-0.8,0.3C361.2,88.6,361,88.5,360.8,88.4z"/>
			<path class="st2" d="M364.8,87.9h-1.3l-0.2,0.6h-0.7l1.2-2.8h0.6l1.3,2.8H365L364.8,87.9z M364.6,87.4l-0.4-1.1l-0.4,1.1H364.6z"
				/>
			<path class="st2" d="M367.2,87.5v1h-0.6v-1l-1.1-1.8h0.7l0.7,1.2l0.7-1.2h0.6L367.2,87.5z"/>
			<path class="st2" d="M370.2,87.9h-1.3l-0.2,0.6H368l1.2-2.8h0.6l1.3,2.8h-0.7L370.2,87.9z M370,87.4l-0.4-1.1l-0.4,1.1H370z"/>
		</g>
	</g>
	<g>
		<g>
			<path class="st2" d="M303.9,69.5l0-1.7l-0.8,1.4h-0.3l-0.8-1.3v1.6h-0.6v-2.8h0.5l1,1.7l1-1.7h0.5l0,2.8H303.9z"/>
			<path class="st2" d="M307,68.9h-1.3l-0.2,0.6h-0.7l1.2-2.8h0.6l1.3,2.8h-0.7L307,68.9z M306.8,68.4l-0.4-1.1l-0.4,1.1H306.8z"/>
			<path class="st2" d="M308.3,66.7h0.6V69h1.4v0.5h-2.1V66.7z"/>
			<path class="st2" d="M311,69.2c-0.2-0.2-0.3-0.5-0.3-0.9v-1.6h0.6v1.5c0,0.5,0.2,0.8,0.6,0.8c0.2,0,0.4-0.1,0.5-0.2
				c0.1-0.1,0.2-0.3,0.2-0.6v-1.5h0.6v1.6c0,0.4-0.1,0.7-0.3,0.9c-0.2,0.2-0.5,0.3-0.9,0.3C311.5,69.6,311.2,69.4,311,69.2z"/>
			<path class="st2" d="M314.8,68.4l-0.4,0.4v0.7h-0.6v-2.8h0.6V68l1.2-1.3h0.7l-1.2,1.2l1.2,1.6h-0.8L314.8,68.4z"/>
			<path class="st2" d="M317,69.2c-0.2-0.2-0.3-0.5-0.3-0.9v-1.6h0.6v1.5c0,0.5,0.2,0.8,0.6,0.8c0.2,0,0.4-0.1,0.5-0.2
				c0.1-0.1,0.2-0.3,0.2-0.6v-1.5h0.6v1.6c0,0.4-0.1,0.7-0.3,0.9c-0.2,0.2-0.5,0.3-0.9,0.3C317.6,69.6,317.3,69.4,317,69.2z"/>
		</g>
	</g>
</g>
<g id="DESIGNED_BY_FREEPIK">
</g>
</svg>
